# MagicaVoxel @ Ephtracy

# material
mtllib Rock5.mtl
usemtl palette

# normals
vn -1 0 0
vn 1 0 0
vn 0 0 1
vn 0 0 -1
vn 0 -1 0
vn 0 1 0

# texcoords
vt 0.0332031 0.5
vt 0.564453 0.5

# verts
v -2.5 9 -0.5
v -2.5 9 -1.5
v -2.5 10 -0.5
v -2.5 10 -1.5
v -1.5 6 -0.5
v -1.5 6 -1.5
v -1.5 6 -2.5
v -1.5 7 0.5
v -1.5 7 -0.5
v -1.5 7 -1.5
v -1.5 7 -2.5
v -1.5 8 1.5
v -1.5 8 0.5
v -1.5 9 1.5
v -1.5 9 0.5
v -1.5 9 -0.5
v -0.5 6 0.5
v -0.5 6 -0.5
v -0.5 7 0.5
v -0.5 7 -0.5
v -0.5 8 -0.5
v -0.5 8 -1.5
v -0.5 9 0.5
v -0.5 9 -0.5
v -0.5 9 -1.5
v -0.5 10 0.5
v -0.5 10 -0.5
v 0.5 4 -0.5
v 0.5 4 -1.5
v 0.5 5 -0.5
v 0.5 5 -1.5
v 0.5 6 -0.5
v 0.5 6 -1.5
v 1.5 5 -1.5
v 1.5 5 -2.5
v 1.5 6 -1.5
v 1.5 7 1.5
v 1.5 7 0.5
v 1.5 7 -1.5
v 1.5 7 -2.5
v 1.5 8 1.5
v 1.5 8 0.5
v -1.5 9 -0.5
v -1.5 9 -1.5
v -1.5 10 -0.5
v -1.5 10 -1.5
v -0.5 6 -1.5
v -0.5 6 -2.5
v -0.5 7 -1.5
v -0.5 7 -2.5
v -0.5 8 1.5
v -0.5 8 0.5
v -0.5 9 1.5
v -0.5 9 0.5
v 0.5 6 0.5
v 0.5 6 -0.5
v 0.5 6 -1.5
v 0.5 7 0.5
v 0.5 7 -0.5
v 0.5 7 -1.5
v 0.5 8 -0.5
v 0.5 8 -1.5
v 0.5 9 -0.5
v 0.5 9 -1.5
v 0.5 10 0.5
v 0.5 10 -0.5
v 1.5 4 -0.5
v 1.5 4 -1.5
v 1.5 5 -0.5
v 1.5 5 -1.5
v 1.5 6 -0.5
v 1.5 6 -1.5
v 2.5 5 -1.5
v 2.5 5 -2.5
v 2.5 7 1.5
v 2.5 7 0.5
v 2.5 7 -1.5
v 2.5 7 -2.5
v 2.5 8 1.5
v 2.5 8 0.5
v -1.5 8 1.5
v -1.5 9 1.5
v -0.5 8 1.5
v -0.5 9 1.5
v 1.5 7 1.5
v 1.5 8 1.5
v 2.5 7 1.5
v 2.5 8 1.5
v -1.5 7 0.5
v -1.5 8 0.5
v -0.5 6 0.5
v -0.5 7 0.5
v -0.5 8 0.5
v -0.5 9 0.5
v -0.5 10 0.5
v 0.5 6 0.5
v 0.5 7 0.5
v 0.5 10 0.5
v -2.5 9 -0.5
v -2.5 10 -0.5
v -1.5 6 -0.5
v -1.5 7 -0.5
v -1.5 9 -0.5
v -1.5 10 -0.5
v -0.5 6 -0.5
v -0.5 7 -0.5
v 0.5 4 -0.5
v 0.5 5 -0.5
v 0.5 6 -0.5
v 1.5 4 -0.5
v 1.5 5 -0.5
v 1.5 6 -0.5
v 1.5 5 -1.5
v 1.5 6 -1.5
v 1.5 7 -1.5
v 2.5 5 -1.5
v 2.5 7 -1.5
v 1.5 7 0.5
v 1.5 8 0.5
v 2.5 7 0.5
v 2.5 8 0.5
v -1.5 7 -0.5
v -1.5 9 -0.5
v -0.5 7 -0.5
v -0.5 8 -0.5
v -0.5 9 -0.5
v -0.5 10 -0.5
v 0.5 7 -0.5
v 0.5 8 -0.5
v 0.5 9 -0.5
v 0.5 10 -0.5
v -2.5 9 -1.5
v -2.5 10 -1.5
v -1.5 9 -1.5
v -1.5 10 -1.5
v -0.5 6 -1.5
v -0.5 7 -1.5
v -0.5 8 -1.5
v -0.5 9 -1.5
v 0.5 4 -1.5
v 0.5 5 -1.5
v 0.5 6 -1.5
v 0.5 7 -1.5
v 0.5 8 -1.5
v 0.5 9 -1.5
v 1.5 4 -1.5
v 1.5 5 -1.5
v 1.5 6 -1.5
v -1.5 6 -2.5
v -1.5 7 -2.5
v -0.5 6 -2.5
v -0.5 7 -2.5
v 1.5 5 -2.5
v 1.5 7 -2.5
v 2.5 5 -2.5
v 2.5 7 -2.5
v 0.5 4 -0.5
v 1.5 4 -0.5
v 0.5 4 -1.5
v 1.5 4 -1.5
v 1.5 5 -1.5
v 2.5 5 -1.5
v 1.5 5 -2.5
v 2.5 5 -2.5
v -0.5 6 0.5
v 0.5 6 0.5
v -1.5 6 -0.5
v -0.5 6 -0.5
v 0.5 6 -0.5
v -1.5 6 -1.5
v -0.5 6 -1.5
v 0.5 6 -1.5
v -1.5 6 -2.5
v -0.5 6 -2.5
v 1.5 7 1.5
v 2.5 7 1.5
v -1.5 7 0.5
v -0.5 7 0.5
v 1.5 7 0.5
v 2.5 7 0.5
v -1.5 7 -0.5
v -0.5 7 -0.5
v -1.5 8 1.5
v -0.5 8 1.5
v -1.5 8 0.5
v -0.5 8 0.5
v -0.5 8 -0.5
v 0.5 8 -0.5
v -0.5 8 -1.5
v 0.5 8 -1.5
v -2.5 9 -0.5
v -1.5 9 -0.5
v -2.5 9 -1.5
v -1.5 9 -1.5
v 0.5 6 -0.5
v 1.5 6 -0.5
v 0.5 6 -1.5
v 1.5 6 -1.5
v -1.5 7 -0.5
v -0.5 7 -0.5
v 0.5 7 -0.5
v -1.5 7 -1.5
v -0.5 7 -1.5
v 0.5 7 -1.5
v 1.5 7 -1.5
v 2.5 7 -1.5
v -1.5 7 -2.5
v -0.5 7 -2.5
v 1.5 7 -2.5
v 2.5 7 -2.5
v 1.5 8 1.5
v 2.5 8 1.5
v 1.5 8 0.5
v 2.5 8 0.5
v -1.5 9 1.5
v -0.5 9 1.5
v -1.5 9 0.5
v -0.5 9 0.5
v -1.5 9 -0.5
v -0.5 9 -0.5
v 0.5 9 -0.5
v -0.5 9 -1.5
v 0.5 9 -1.5
v -0.5 10 0.5
v 0.5 10 0.5
v -2.5 10 -0.5
v -1.5 10 -0.5
v -0.5 10 -0.5
v 0.5 10 -0.5
v -2.5 10 -1.5
v -1.5 10 -1.5

# faces
f 3/1/1 2/1/1 1/1/1
f 4/1/1 2/1/1 3/1/1
f 9/1/1 6/1/1 5/1/1
f 10/2/1 7/2/1 6/2/1
f 10/1/1 6/1/1 9/1/1
f 11/2/1 7/2/1 10/2/1
f 13/2/1 9/2/1 8/2/1
f 14/1/1 13/1/1 12/1/1
f 15/2/1 9/2/1 13/2/1
f 15/1/1 13/1/1 14/1/1
f 16/2/1 9/2/1 15/2/1
f 19/2/1 18/2/1 17/2/1
f 20/2/1 18/2/1 19/2/1
f 24/1/1 22/1/1 21/1/1
f 25/1/1 22/1/1 24/1/1
f 26/1/1 24/1/1 23/1/1
f 27/1/1 24/1/1 26/1/1
f 30/2/1 29/2/1 28/2/1
f 31/2/1 29/2/1 30/2/1
f 32/1/1 31/1/1 30/1/1
f 33/1/1 31/1/1 32/1/1
f 36/1/1 35/1/1 34/1/1
f 39/1/1 35/1/1 36/1/1
f 40/1/1 35/1/1 39/1/1
f 41/1/1 38/1/1 37/1/1
f 42/1/1 38/1/1 41/1/1
f 43/1/2 44/1/2 45/1/2
f 45/1/2 44/1/2 46/1/2
f 47/2/2 48/2/2 49/2/2
f 49/2/2 48/2/2 50/2/2
f 51/1/2 52/1/2 53/1/2
f 53/1/2 52/1/2 54/1/2
f 55/2/2 56/2/2 58/2/2
f 56/1/2 57/1/2 59/1/2
f 58/2/2 56/2/2 59/2/2
f 59/1/2 57/1/2 60/1/2
f 58/1/2 59/1/2 61/1/2
f 58/1/2 61/1/2 63/1/2
f 61/1/2 62/1/2 63/1/2
f 63/1/2 62/1/2 64/1/2
f 58/1/2 63/1/2 65/1/2
f 65/1/2 63/1/2 66/1/2
f 67/2/2 68/2/2 69/2/2
f 69/2/2 68/2/2 70/2/2
f 69/1/2 70/1/2 71/1/2
f 71/1/2 70/1/2 72/1/2
f 73/1/2 74/1/2 77/1/2
f 77/1/2 74/1/2 78/1/2
f 75/1/2 76/1/2 79/1/2
f 79/1/2 76/1/2 80/1/2
f 83/1/3 82/1/3 81/1/3
f 84/1/3 82/1/3 83/1/3
f 87/1/3 86/1/3 85/1/3
f 88/1/3 86/1/3 87/1/3
f 92/2/3 90/2/3 89/2/3
f 93/2/3 90/2/3 92/2/3
f 96/2/3 92/2/3 91/2/3
f 97/1/3 95/1/3 94/1/3
f 97/2/3 92/2/3 96/2/3
f 97/1/3 93/1/3 92/1/3
f 97/1/3 94/1/3 93/1/3
f 98/1/3 95/1/3 97/1/3
f 103/1/3 100/1/3 99/1/3
f 104/1/3 100/1/3 103/1/3
f 105/1/3 102/1/3 101/1/3
f 106/1/3 102/1/3 105/1/3
f 110/2/3 108/2/3 107/2/3
f 111/1/3 109/1/3 108/1/3
f 111/2/3 108/2/3 110/2/3
f 112/1/3 109/1/3 111/1/3
f 116/1/3 114/1/3 113/1/3
f 116/1/3 115/1/3 114/1/3
f 117/1/3 115/1/3 116/1/3
f 118/1/4 119/1/4 120/1/4
f 120/1/4 119/1/4 121/1/4
f 122/2/4 123/2/4 124/2/4
f 124/2/4 123/2/4 125/2/4
f 125/2/4 123/2/4 126/2/4
f 124/1/4 125/1/4 128/1/4
f 128/1/4 125/1/4 129/1/4
f 126/1/4 127/1/4 130/1/4
f 130/1/4 127/1/4 131/1/4
f 132/1/4 133/1/4 134/1/4
f 134/1/4 133/1/4 135/1/4
f 136/1/4 137/1/4 142/1/4
f 142/1/4 137/1/4 143/1/4
f 138/1/4 139/1/4 144/1/4
f 144/1/4 139/1/4 145/1/4
f 140/2/4 141/2/4 146/2/4
f 141/1/4 142/1/4 147/1/4
f 146/2/4 141/2/4 147/2/4
f 147/1/4 142/1/4 148/1/4
f 149/2/4 150/2/4 151/2/4
f 151/2/4 150/2/4 152/2/4
f 153/1/4 154/1/4 155/1/4
f 155/1/4 154/1/4 156/1/4
f 159/2/5 158/2/5 157/2/5
f 160/2/5 158/2/5 159/2/5
f 163/1/5 162/1/5 161/1/5
f 164/1/5 162/1/5 163/1/5
f 168/2/5 166/2/5 165/2/5
f 169/2/5 166/2/5 168/2/5
f 170/1/5 168/1/5 167/1/5
f 170/1/5 169/1/5 168/1/5
f 171/1/5 169/1/5 170/1/5
f 172/1/5 169/1/5 171/1/5
f 173/2/5 171/2/5 170/2/5
f 174/2/5 171/2/5 173/2/5
f 179/1/5 176/1/5 175/1/5
f 180/1/5 176/1/5 179/1/5
f 181/2/5 178/2/5 177/2/5
f 182/2/5 178/2/5 181/2/5
f 185/1/5 184/1/5 183/1/5
f 186/1/5 184/1/5 185/1/5
f 189/1/5 188/1/5 187/1/5
f 190/1/5 188/1/5 189/1/5
f 193/1/5 192/1/5 191/1/5
f 194/1/5 192/1/5 193/1/5
f 195/1/6 196/1/6 197/1/6
f 197/1/6 196/1/6 198/1/6
f 199/1/6 200/1/6 202/1/6
f 200/1/6 201/1/6 202/1/6
f 202/1/6 201/1/6 203/1/6
f 203/1/6 201/1/6 204/1/6
f 202/2/6 203/2/6 207/2/6
f 207/2/6 203/2/6 208/2/6
f 205/1/6 206/1/6 209/1/6
f 209/1/6 206/1/6 210/1/6
f 211/1/6 212/1/6 213/1/6
f 213/1/6 212/1/6 214/1/6
f 215/1/6 216/1/6 217/1/6
f 217/1/6 216/1/6 218/1/6
f 217/2/6 218/2/6 219/2/6
f 219/2/6 218/2/6 220/2/6
f 220/1/6 221/1/6 222/1/6
f 222/1/6 221/1/6 223/1/6
f 224/1/6 225/1/6 228/1/6
f 228/1/6 225/1/6 229/1/6
f 226/1/6 227/1/6 230/1/6
f 230/1/6 227/1/6 231/1/6
