# MagicaVoxel @ Ephtracy

# material
mtllib Rock3.mtl
usemtl palette

# normals
vn -1 0 0
vn 1 0 0
vn 0 0 1
vn 0 0 -1
vn 0 -1 0
vn 0 1 0

# texcoords
vt 0.0332031 0.5
vt 0.564453 0.5
vt 0.568359 0.5

# verts
v -2.5 8 0.5
v -2.5 8 -0.5
v -2.5 9 0.5
v -2.5 9 -0.5
v -2.5 10 1.5
v -2.5 10 0.5
v -2.5 11 1.5
v -2.5 11 0.5
v -1.5 5 -0.5
v -1.5 5 -1.5
v -1.5 5 -2.5
v -1.5 6 1.5
v -1.5 6 0.5
v -1.5 6 -0.5
v -1.5 6 -1.5
v -1.5 6 -2.5
v -1.5 7 2.5
v -1.5 7 1.5
v -1.5 7 -0.5
v -1.5 7 -1.5
v -1.5 8 2.5
v -1.5 8 0.5
v -1.5 8 -0.5
v -1.5 8 -1.5
v -1.5 9 0.5
v -1.5 9 -0.5
v -1.5 9 -1.5
v -1.5 10 0.5
v -1.5 10 -0.5
v -1.5 10 -1.5
v -0.5 5 1.5
v -0.5 5 0.5
v -0.5 6 2.5
v -0.5 6 1.5
v -0.5 6 0.5
v -0.5 7 2.5
v -0.5 7 1.5
v -0.5 9 1.5
v -0.5 9 0.5
v -0.5 10 1.5
v -0.5 10 0.5
v -0.5 11 1.5
v -0.5 11 0.5
v -0.5 12 1.5
v -0.5 12 0.5
v 0.5 3 0.5
v 0.5 3 -0.5
v 0.5 4 0.5
v 0.5 4 -0.5
v 0.5 5 0.5
v 0.5 5 -0.5
v 1.5 4 -0.5
v 1.5 4 -1.5
v 1.5 5 -0.5
v 1.5 6 2.5
v 1.5 6 1.5
v 1.5 6 -0.5
v 1.5 6 -1.5
v 1.5 7 2.5
v 1.5 7 1.5
v 1.5 9 1.5
v 1.5 9 0.5
v 1.5 10 1.5
v 1.5 10 0.5
v -1.5 8 0.5
v -1.5 8 -0.5
v -1.5 9 0.5
v -1.5 9 -0.5
v -1.5 10 1.5
v -1.5 10 0.5
v -1.5 11 1.5
v -1.5 11 0.5
v -0.5 5 -0.5
v -0.5 5 -1.5
v -0.5 5 -2.5
v -0.5 6 -0.5
v -0.5 6 -1.5
v -0.5 6 -2.5
v -0.5 7 2.5
v -0.5 7 1.5
v -0.5 7 0.5
v -0.5 7 -0.5
v -0.5 7 -1.5
v -0.5 8 2.5
v -0.5 8 0.5
v -0.5 8 -0.5
v -0.5 8 -1.5
v -0.5 9 -0.5
v -0.5 9 -1.5
v -0.5 10 -0.5
v -0.5 10 -1.5
v 0.5 5 1.5
v 0.5 5 0.5
v 0.5 6 2.5
v 0.5 6 1.5
v 0.5 7 2.5
v 0.5 7 1.5
v 0.5 7 0.5
v 0.5 9 1.5
v 0.5 9 -0.5
v 0.5 10 1.5
v 0.5 10 -0.5
v 0.5 11 1.5
v 0.5 11 0.5
v 0.5 12 1.5
v 0.5 12 0.5
v 1.5 3 0.5
v 1.5 3 -0.5
v 1.5 4 0.5
v 1.5 4 -0.5
v 1.5 5 0.5
v 1.5 5 -0.5
v 2.5 4 -0.5
v 2.5 4 -1.5
v 2.5 6 2.5
v 2.5 6 1.5
v 2.5 6 -0.5
v 2.5 6 -1.5
v 2.5 7 2.5
v 2.5 7 1.5
v 2.5 9 1.5
v 2.5 9 0.5
v 2.5 10 1.5
v 2.5 10 0.5
v -1.5 7 2.5
v -1.5 8 2.5
v -0.5 6 2.5
v -0.5 7 2.5
v -0.5 8 2.5
v 0.5 6 2.5
v 0.5 7 2.5
v 1.5 6 2.5
v 1.5 7 2.5
v 2.5 6 2.5
v 2.5 7 2.5
v -2.5 10 1.5
v -2.5 11 1.5
v -1.5 6 1.5
v -1.5 7 1.5
v -1.5 10 1.5
v -1.5 11 1.5
v -0.5 5 1.5
v -0.5 6 1.5
v -0.5 7 1.5
v -0.5 9 1.5
v -0.5 10 1.5
v -0.5 11 1.5
v -0.5 12 1.5
v 0.5 5 1.5
v 0.5 6 1.5
v 0.5 9 1.5
v 0.5 10 1.5
v 0.5 11 1.5
v 0.5 12 1.5
v 1.5 9 1.5
v 1.5 10 1.5
v 2.5 9 1.5
v 2.5 10 1.5
v -2.5 8 0.5
v -2.5 9 0.5
v -1.5 8 0.5
v -1.5 9 0.5
v -1.5 10 0.5
v -0.5 9 0.5
v -0.5 10 0.5
v 0.5 3 0.5
v 0.5 4 0.5
v 0.5 5 0.5
v 1.5 3 0.5
v 1.5 4 0.5
v 1.5 5 0.5
v -1.5 5 -0.5
v -1.5 6 -0.5
v -1.5 7 -0.5
v -1.5 8 -0.5
v -0.5 5 -0.5
v -0.5 6 -0.5
v -0.5 7 -0.5
v -0.5 8 -0.5
v 1.5 4 -0.5
v 1.5 5 -0.5
v 1.5 6 -0.5
v 2.5 4 -0.5
v 2.5 6 -0.5
v 1.5 6 1.5
v 1.5 7 1.5
v 2.5 6 1.5
v 2.5 7 1.5
v -2.5 10 0.5
v -2.5 11 0.5
v -1.5 6 0.5
v -1.5 8 0.5
v -1.5 10 0.5
v -1.5 11 0.5
v -0.5 5 0.5
v -0.5 6 0.5
v -0.5 7 0.5
v -0.5 8 0.5
v -0.5 11 0.5
v -0.5 12 0.5
v 0.5 5 0.5
v 0.5 7 0.5
v 0.5 11 0.5
v 0.5 12 0.5
v 1.5 9 0.5
v 1.5 10 0.5
v 2.5 9 0.5
v 2.5 10 0.5
v -2.5 8 -0.5
v -2.5 9 -0.5
v -1.5 8 -0.5
v -1.5 9 -0.5
v -0.5 9 -0.5
v -0.5 10 -0.5
v 0.5 3 -0.5
v 0.5 4 -0.5
v 0.5 5 -0.5
v 0.5 9 -0.5
v 0.5 10 -0.5
v 1.5 3 -0.5
v 1.5 4 -0.5
v 1.5 5 -0.5
v -1.5 7 -1.5
v -1.5 8 -1.5
v -1.5 9 -1.5
v -1.5 10 -1.5
v -0.5 7 -1.5
v -0.5 8 -1.5
v -0.5 9 -1.5
v -0.5 10 -1.5
v 1.5 4 -1.5
v 1.5 6 -1.5
v 2.5 4 -1.5
v 2.5 6 -1.5
v -1.5 5 -2.5
v -1.5 6 -2.5
v -0.5 5 -2.5
v -0.5 6 -2.5
v 0.5 3 0.5
v 1.5 3 0.5
v 0.5 3 -0.5
v 1.5 3 -0.5
v 1.5 4 -0.5
v 2.5 4 -0.5
v 1.5 4 -1.5
v 2.5 4 -1.5
v -0.5 5 1.5
v 0.5 5 1.5
v -0.5 5 0.5
v 0.5 5 0.5
v -1.5 5 -0.5
v -0.5 5 -0.5
v -1.5 5 -1.5
v -0.5 5 -1.5
v -1.5 5 -2.5
v -0.5 5 -2.5
v -0.5 6 2.5
v 0.5 6 2.5
v 1.5 6 2.5
v 2.5 6 2.5
v -1.5 6 1.5
v -0.5 6 1.5
v 0.5 6 1.5
v 1.5 6 1.5
v 2.5 6 1.5
v -1.5 6 0.5
v -0.5 6 0.5
v -1.5 7 2.5
v -0.5 7 2.5
v -1.5 7 1.5
v -0.5 7 1.5
v -1.5 7 -0.5
v -0.5 7 -0.5
v -1.5 7 -1.5
v -0.5 7 -1.5
v -2.5 8 0.5
v -1.5 8 0.5
v -2.5 8 -0.5
v -1.5 8 -0.5
v -0.5 9 1.5
v 0.5 9 1.5
v 1.5 9 1.5
v 2.5 9 1.5
v -1.5 9 0.5
v -0.5 9 0.5
v 1.5 9 0.5
v 2.5 9 0.5
v -1.5 9 -0.5
v -0.5 9 -0.5
v 0.5 9 -0.5
v -1.5 9 -1.5
v -0.5 9 -1.5
v -2.5 10 1.5
v -1.5 10 1.5
v -2.5 10 0.5
v -1.5 10 0.5
v -0.5 11 1.5
v 0.5 11 1.5
v -0.5 11 0.5
v 0.5 11 0.5
v 0.5 5 0.5
v 1.5 5 0.5
v 0.5 5 -0.5
v 1.5 5 -0.5
v -1.5 6 -0.5
v -0.5 6 -0.5
v 1.5 6 -0.5
v 2.5 6 -0.5
v -1.5 6 -1.5
v -0.5 6 -1.5
v 1.5 6 -1.5
v 2.5 6 -1.5
v -1.5 6 -2.5
v -0.5 6 -2.5
v -0.5 7 2.5
v 0.5 7 2.5
v 1.5 7 2.5
v 2.5 7 2.5
v -0.5 7 1.5
v 0.5 7 1.5
v 1.5 7 1.5
v 2.5 7 1.5
v -0.5 7 0.5
v 0.5 7 0.5
v -1.5 8 2.5
v -0.5 8 2.5
v -1.5 8 0.5
v -0.5 8 0.5
v -1.5 8 -0.5
v -0.5 8 -0.5
v -1.5 8 -1.5
v -0.5 8 -1.5
v -2.5 9 0.5
v -1.5 9 0.5
v -2.5 9 -0.5
v -1.5 9 -0.5
v -0.5 10 1.5
v 0.5 10 1.5
v 1.5 10 1.5
v 2.5 10 1.5
v -1.5 10 0.5
v -0.5 10 0.5
v 1.5 10 0.5
v 2.5 10 0.5
v -1.5 10 -0.5
v -0.5 10 -0.5
v 0.5 10 -0.5
v -1.5 10 -1.5
v -0.5 10 -1.5
v -2.5 11 1.5
v -1.5 11 1.5
v -2.5 11 0.5
v -1.5 11 0.5
v -0.5 12 1.5
v 0.5 12 1.5
v -0.5 12 0.5
v 0.5 12 0.5

# faces
f 3/1/1 2/1/1 1/1/1
f 4/1/1 2/1/1 3/1/1
f 7/2/1 6/2/1 5/2/1
f 8/2/1 6/2/1 7/2/1
f 14/2/1 10/2/1 9/2/1
f 15/1/1 11/1/1 10/1/1
f 15/2/1 10/2/1 14/2/1
f 16/1/1 11/1/1 15/1/1
f 18/1/1 13/1/1 12/1/1
f 21/1/1 18/1/1 17/1/1
f 22/1/1 13/1/1 18/1/1
f 22/1/1 18/1/1 21/1/1
f 23/1/1 20/1/1 19/1/1
f 24/1/1 20/1/1 23/1/1
f 28/1/1 26/1/1 25/1/1
f 29/2/1 27/2/1 26/2/1
f 29/1/1 26/1/1 28/1/1
f 30/2/1 27/2/1 29/2/1
f 34/1/1 32/1/1 31/1/1
f 35/1/1 32/1/1 34/1/1
f 36/3/1 34/3/1 33/3/1
f 37/3/1 34/3/1 36/3/1
f 40/1/1 39/1/1 38/1/1
f 41/1/1 39/1/1 40/1/1
f 44/1/1 43/1/1 42/1/1
f 45/1/1 43/1/1 44/1/1
f 48/2/1 47/2/1 46/2/1
f 49/2/1 47/2/1 48/2/1
f 50/1/1 49/1/1 48/1/1
f 51/1/1 49/1/1 50/1/1
f 54/1/1 53/1/1 52/1/1
f 57/1/1 53/1/1 54/1/1
f 58/1/1 53/1/1 57/1/1
f 59/1/1 56/1/1 55/1/1
f 60/1/1 56/1/1 59/1/1
f 63/1/1 62/1/1 61/1/1
f 64/1/1 62/1/1 63/1/1
f 65/1/2 66/1/2 67/1/2
f 67/1/2 66/1/2 68/1/2
f 69/2/2 70/2/2 71/2/2
f 71/2/2 70/2/2 72/2/2
f 73/2/2 74/2/2 76/2/2
f 74/1/2 75/1/2 77/1/2
f 76/2/2 74/2/2 77/2/2
f 77/1/2 75/1/2 78/1/2
f 79/1/2 80/1/2 84/1/2
f 80/1/2 81/1/2 84/1/2
f 84/1/2 81/1/2 85/1/2
f 82/1/2 83/1/2 86/1/2
f 86/1/2 83/1/2 87/1/2
f 88/2/2 89/2/2 90/2/2
f 90/2/2 89/2/2 91/2/2
f 92/1/2 93/1/2 95/1/2
f 94/3/2 95/3/2 96/3/2
f 95/1/2 93/1/2 97/1/2
f 96/3/2 95/3/2 97/3/2
f 97/1/2 93/1/2 98/1/2
f 99/1/2 100/1/2 101/1/2
f 101/1/2 100/1/2 102/1/2
f 103/1/2 104/1/2 105/1/2
f 105/1/2 104/1/2 106/1/2
f 107/2/2 108/2/2 109/2/2
f 109/2/2 108/2/2 110/2/2
f 109/1/2 110/1/2 111/1/2
f 111/1/2 110/1/2 112/1/2
f 113/1/2 114/1/2 117/1/2
f 117/1/2 114/1/2 118/1/2
f 115/1/2 116/1/2 119/1/2
f 119/1/2 116/1/2 120/1/2
f 121/1/2 122/1/2 123/1/2
f 123/1/2 122/1/2 124/1/2
f 128/1/3 126/1/3 125/1/3
f 129/1/3 126/1/3 128/1/3
f 130/3/3 128/3/3 127/3/3
f 131/3/3 128/3/3 130/3/3
f 134/1/3 133/1/3 132/1/3
f 135/1/3 133/1/3 134/1/3
f 140/2/3 137/2/3 136/2/3
f 141/2/3 137/2/3 140/2/3
f 143/1/3 139/1/3 138/1/3
f 144/1/3 139/1/3 143/1/3
f 149/1/3 143/1/3 142/1/3
f 150/1/3 143/1/3 149/1/3
f 151/1/3 146/1/3 145/1/3
f 152/1/3 146/1/3 151/1/3
f 153/1/3 148/1/3 147/1/3
f 154/1/3 148/1/3 153/1/3
f 157/1/3 156/1/3 155/1/3
f 158/1/3 156/1/3 157/1/3
f 161/1/3 160/1/3 159/1/3
f 162/1/3 160/1/3 161/1/3
f 164/1/3 163/1/3 162/1/3
f 165/1/3 163/1/3 164/1/3
f 169/2/3 167/2/3 166/2/3
f 170/1/3 168/1/3 167/1/3
f 170/2/3 167/2/3 169/2/3
f 171/1/3 168/1/3 170/1/3
f 176/2/3 173/2/3 172/2/3
f 177/2/3 173/2/3 176/2/3
f 178/1/3 175/1/3 174/1/3
f 179/1/3 175/1/3 178/1/3
f 183/1/3 181/1/3 180/1/3
f 183/1/3 182/1/3 181/1/3
f 184/1/3 182/1/3 183/1/3
f 185/1/4 186/1/4 187/1/4
f 187/1/4 186/1/4 188/1/4
f 189/2/4 190/2/4 193/2/4
f 193/2/4 190/2/4 194/2/4
f 191/1/4 192/1/4 196/1/4
f 196/1/4 192/1/4 197/1/4
f 197/1/4 192/1/4 198/1/4
f 195/1/4 196/1/4 201/1/4
f 196/1/4 197/1/4 201/1/4
f 201/1/4 197/1/4 202/1/4
f 199/1/4 200/1/4 203/1/4
f 203/1/4 200/1/4 204/1/4
f 205/1/4 206/1/4 207/1/4
f 207/1/4 206/1/4 208/1/4
f 209/1/4 210/1/4 211/1/4
f 211/1/4 210/1/4 212/1/4
f 213/1/4 214/1/4 218/1/4
f 218/1/4 214/1/4 219/1/4
f 215/2/4 216/2/4 220/2/4
f 216/1/4 217/1/4 221/1/4
f 220/2/4 216/2/4 221/2/4
f 221/1/4 217/1/4 222/1/4
f 223/1/4 224/1/4 227/1/4
f 227/1/4 224/1/4 228/1/4
f 225/2/4 226/2/4 229/2/4
f 229/2/4 226/2/4 230/2/4
f 231/1/4 232/1/4 233/1/4
f 233/1/4 232/1/4 234/1/4
f 235/1/4 236/1/4 237/1/4
f 237/1/4 236/1/4 238/1/4
f 241/2/5 240/2/5 239/2/5
f 242/2/5 240/2/5 241/2/5
f 245/1/5 244/1/5 243/1/5
f 246/1/5 244/1/5 245/1/5
f 249/1/5 248/1/5 247/1/5
f 250/1/5 248/1/5 249/1/5
f 253/2/5 252/2/5 251/2/5
f 254/2/5 252/2/5 253/2/5
f 255/1/5 254/1/5 253/1/5
f 256/1/5 254/1/5 255/1/5
f 262/3/5 258/3/5 257/3/5
f 263/3/5 258/3/5 262/3/5
f 264/1/5 260/1/5 259/1/5
f 265/1/5 260/1/5 264/1/5
f 266/1/5 262/1/5 261/1/5
f 267/1/5 262/1/5 266/1/5
f 270/1/5 269/1/5 268/1/5
f 271/1/5 269/1/5 270/1/5
f 274/1/5 273/1/5 272/1/5
f 275/1/5 273/1/5 274/1/5
f 278/1/5 277/1/5 276/1/5
f 279/1/5 277/1/5 278/1/5
f 285/1/5 281/1/5 280/1/5
f 286/1/5 283/1/5 282/1/5
f 287/1/5 283/1/5 286/1/5
f 288/1/5 285/1/5 284/1/5
f 289/1/5 281/1/5 285/1/5
f 289/1/5 285/1/5 288/1/5
f 290/1/5 281/1/5 289/1/5
f 291/2/5 289/2/5 288/2/5
f 292/2/5 289/2/5 291/2/5
f 295/2/5 294/2/5 293/2/5
f 296/2/5 294/2/5 295/2/5
f 299/1/5 298/1/5 297/1/5
f 300/1/5 298/1/5 299/1/5
f 301/1/6 302/1/6 303/1/6
f 303/1/6 302/1/6 304/1/6
f 305/2/6 306/2/6 309/2/6
f 309/2/6 306/2/6 310/2/6
f 307/1/6 308/1/6 311/1/6
f 311/1/6 308/1/6 312/1/6
f 309/1/6 310/1/6 313/1/6
f 313/1/6 310/1/6 314/1/6
f 315/3/6 316/3/6 319/3/6
f 319/3/6 316/3/6 320/3/6
f 317/1/6 318/1/6 321/1/6
f 321/1/6 318/1/6 322/1/6
f 319/1/6 320/1/6 323/1/6
f 323/1/6 320/1/6 324/1/6
f 325/1/6 326/1/6 327/1/6
f 327/1/6 326/1/6 328/1/6
f 329/1/6 330/1/6 331/1/6
f 331/1/6 330/1/6 332/1/6
f 333/1/6 334/1/6 335/1/6
f 335/1/6 334/1/6 336/1/6
f 337/1/6 338/1/6 342/1/6
f 339/1/6 340/1/6 343/1/6
f 343/1/6 340/1/6 344/1/6
f 341/1/6 342/1/6 345/1/6
f 342/1/6 338/1/6 346/1/6
f 345/1/6 342/1/6 346/1/6
f 346/1/6 338/1/6 347/1/6
f 345/2/6 346/2/6 348/2/6
f 348/2/6 346/2/6 349/2/6
f 350/2/6 351/2/6 352/2/6
f 352/2/6 351/2/6 353/2/6
f 354/1/6 355/1/6 356/1/6
f 356/1/6 355/1/6 357/1/6
