# MagicaVoxel @ Ephtracy

# material
mtllib Rock1.mtl
usemtl palette

# normals
vn -1 0 0
vn 1 0 0
vn 0 0 1
vn 0 0 -1
vn 0 -1 0
vn 0 1 0

# texcoords
vt 0.0332031 0.5
vt 0.564453 0.5
vt 0.568359 0.5

# verts
v -2.5 7 0.5
v -2.5 7 -0.5
v -2.5 8 0.5
v -2.5 8 -0.5
v -2.5 9 1.5
v -2.5 9 0.5
v -2.5 10 1.5
v -2.5 10 0.5
v -1.5 4 -0.5
v -1.5 4 -1.5
v -1.5 4 -2.5
v -1.5 5 -0.5
v -1.5 5 -1.5
v -1.5 5 -2.5
v -1.5 6 2.5
v -1.5 6 1.5
v -1.5 6 -0.5
v -1.5 6 -2.5
v -1.5 7 2.5
v -1.5 7 1.5
v -1.5 7 -0.5
v -1.5 7 -2.5
v -1.5 8 0.5
v -1.5 8 -0.5
v -1.5 8 -1.5
v -1.5 9 0.5
v -1.5 9 -0.5
v -1.5 9 -1.5
v -0.5 5 2.5
v -0.5 5 1.5
v -0.5 5 -0.5
v -0.5 5 -1.5
v -0.5 6 2.5
v -0.5 6 1.5
v -0.5 6 0.5
v -0.5 6 -0.5
v -0.5 6 -1.5
v -0.5 7 1.5
v -0.5 7 0.5
v -0.5 7 -0.5
v -0.5 8 1.5
v -0.5 8 0.5
v -0.5 8 -0.5
v -0.5 10 1.5
v -0.5 10 0.5
v -0.5 11 1.5
v -0.5 11 0.5
v 0.5 6 2.5
v 0.5 6 1.5
v 0.5 7 2.5
v 0.5 7 1.5
v -1.5 7 0.5
v -1.5 7 -0.5
v -1.5 8 0.5
v -1.5 8 -0.5
v -1.5 9 1.5
v -1.5 9 0.5
v -1.5 10 1.5
v -1.5 10 0.5
v -0.5 4 -0.5
v -0.5 4 -1.5
v -0.5 4 -2.5
v -0.5 5 -0.5
v -0.5 5 -1.5
v -0.5 5 -2.5
v -0.5 6 2.5
v -0.5 6 1.5
v -0.5 6 -1.5
v -0.5 6 -2.5
v -0.5 7 2.5
v -0.5 7 1.5
v -0.5 7 -1.5
v -0.5 7 -2.5
v -0.5 8 -0.5
v -0.5 8 -1.5
v -0.5 9 -0.5
v -0.5 9 -1.5
v 0.5 5 2.5
v 0.5 5 1.5
v 0.5 5 -0.5
v 0.5 5 -1.5
v 0.5 6 2.5
v 0.5 6 1.5
v 0.5 6 0.5
v 0.5 6 -0.5
v 0.5 6 -1.5
v 0.5 7 1.5
v 0.5 7 0.5
v 0.5 7 -0.5
v 0.5 7 -1.5
v 0.5 8 1.5
v 0.5 8 0.5
v 0.5 9 0.5
v 0.5 9 -0.5
v 0.5 10 1.5
v 0.5 10 0.5
v 0.5 11 1.5
v 0.5 11 0.5
v 2.5 6 2.5
v 2.5 6 1.5
v 2.5 7 2.5
v 2.5 7 1.5
v -1.5 6 2.5
v -1.5 7 2.5
v -0.5 5 2.5
v -0.5 6 2.5
v -0.5 7 2.5
v 0.5 5 2.5
v 0.5 6 2.5
v 0.5 7 2.5
v 1.5 6 2.5
v 1.5 7 2.5
v 2.5 6 2.5
v 2.5 7 2.5
v -2.5 9 1.5
v -2.5 10 1.5
v -1.5 9 1.5
v -1.5 10 1.5
v -0.5 6 1.5
v -0.5 7 1.5
v -0.5 8 1.5
v -0.5 10 1.5
v -0.5 11 1.5
v 0.5 6 1.5
v 0.5 7 1.5
v 0.5 8 1.5
v 0.5 10 1.5
v 0.5 11 1.5
v -2.5 7 0.5
v -2.5 8 0.5
v -1.5 7 0.5
v -1.5 8 0.5
v -1.5 9 0.5
v -0.5 8 0.5
v 0.5 8 0.5
v 0.5 9 0.5
v -1.5 4 -0.5
v -1.5 5 -0.5
v -1.5 6 -0.5
v -1.5 7 -0.5
v -0.5 4 -0.5
v -0.5 5 -0.5
v -0.5 6 -0.5
v -0.5 7 -0.5
v 0.5 5 -0.5
v 0.5 6 -0.5
v 0.5 7 -0.5
v -1.5 6 1.5
v -1.5 7 1.5
v -0.5 5 1.5
v -0.5 6 1.5
v -0.5 7 1.5
v 0.5 5 1.5
v 0.5 6 1.5
v 0.5 7 1.5
v 1.5 6 1.5
v 1.5 7 1.5
v 2.5 6 1.5
v 2.5 7 1.5
v -2.5 9 0.5
v -2.5 10 0.5
v -1.5 9 0.5
v -1.5 10 0.5
v -0.5 6 0.5
v -0.5 7 0.5
v -0.5 10 0.5
v -0.5 11 0.5
v 0.5 6 0.5
v 0.5 7 0.5
v 0.5 10 0.5
v 0.5 11 0.5
v -2.5 7 -0.5
v -2.5 8 -0.5
v -1.5 7 -0.5
v -1.5 8 -0.5
v -0.5 7 -0.5
v -0.5 8 -0.5
v -0.5 9 -0.5
v 0.5 7 -0.5
v 0.5 9 -0.5
v -1.5 8 -1.5
v -1.5 9 -1.5
v -0.5 5 -1.5
v -0.5 6 -1.5
v -0.5 7 -1.5
v -0.5 8 -1.5
v -0.5 9 -1.5
v 0.5 5 -1.5
v 0.5 6 -1.5
v 0.5 7 -1.5
v -1.5 4 -2.5
v -1.5 5 -2.5
v -1.5 6 -2.5
v -1.5 7 -2.5
v -0.5 4 -2.5
v -0.5 5 -2.5
v -0.5 6 -2.5
v -0.5 7 -2.5
v -1.5 4 -0.5
v -0.5 4 -0.5
v -1.5 4 -1.5
v -0.5 4 -1.5
v -1.5 4 -2.5
v -0.5 4 -2.5
v -0.5 5 2.5
v 0.5 5 2.5
v -0.5 5 1.5
v 0.5 5 1.5
v -0.5 5 -0.5
v 0.5 5 -0.5
v -0.5 5 -1.5
v 0.5 5 -1.5
v -1.5 6 2.5
v -0.5 6 2.5
v 0.5 6 2.5
v 1.5 6 2.5
v 2.5 6 2.5
v -1.5 6 1.5
v -0.5 6 1.5
v 0.5 6 1.5
v 1.5 6 1.5
v 2.5 6 1.5
v -0.5 6 0.5
v 0.5 6 0.5
v -1.5 6 -0.5
v -0.5 6 -0.5
v -0.5 6 -1.5
v -1.5 6 -2.5
v -0.5 6 -2.5
v -2.5 7 0.5
v -1.5 7 0.5
v -0.5 7 0.5
v 0.5 7 0.5
v -2.5 7 -0.5
v -1.5 7 -0.5
v -0.5 7 -0.5
v 0.5 7 -0.5
v -1.5 8 0.5
v -0.5 8 0.5
v -1.5 8 -0.5
v -0.5 8 -0.5
v -1.5 8 -1.5
v -0.5 8 -1.5
v -2.5 9 1.5
v -1.5 9 1.5
v -2.5 9 0.5
v -1.5 9 0.5
v -0.5 10 1.5
v 0.5 10 1.5
v -0.5 10 0.5
v 0.5 10 0.5
v -1.5 5 -0.5
v -0.5 5 -0.5
v -1.5 5 -1.5
v -0.5 5 -1.5
v -1.5 5 -2.5
v -0.5 5 -2.5
v -0.5 6 2.5
v 0.5 6 2.5
v -0.5 6 1.5
v 0.5 6 1.5
v -1.5 7 2.5
v -0.5 7 2.5
v 0.5 7 2.5
v 1.5 7 2.5
v 2.5 7 2.5
v -1.5 7 1.5
v -0.5 7 1.5
v 0.5 7 1.5
v 1.5 7 1.5
v 2.5 7 1.5
v -1.5 7 -0.5
v -0.5 7 -0.5
v 0.5 7 -0.5
v -0.5 7 -1.5
v 0.5 7 -1.5
v -1.5 7 -2.5
v -0.5 7 -2.5
v -0.5 8 1.5
v 0.5 8 1.5
v -2.5 8 0.5
v -1.5 8 0.5
v -0.5 8 0.5
v 0.5 8 0.5
v -2.5 8 -0.5
v -1.5 8 -0.5
v -1.5 9 0.5
v 0.5 9 0.5
v -1.5 9 -0.5
v -0.5 9 -0.5
v 0.5 9 -0.5
v -1.5 9 -1.5
v -0.5 9 -1.5
v -2.5 10 1.5
v -1.5 10 1.5
v -2.5 10 0.5
v -1.5 10 0.5
v -0.5 11 1.5
v 0.5 11 1.5
v -0.5 11 0.5
v 0.5 11 0.5

# faces
f 3/1/1 2/1/1 1/1/1
f 4/1/1 2/1/1 3/1/1
f 7/2/1 6/2/1 5/2/1
f 8/2/1 6/2/1 7/2/1
f 12/2/1 10/2/1 9/2/1
f 13/1/1 11/1/1 10/1/1
f 13/2/1 10/2/1 12/2/1
f 14/1/1 11/1/1 13/1/1
f 19/1/1 16/1/1 15/1/1
f 20/1/1 16/1/1 19/1/1
f 21/1/1 18/1/1 17/1/1
f 22/1/1 18/1/1 21/1/1
f 26/1/1 24/1/1 23/1/1
f 27/2/1 25/2/1 24/2/1
f 27/1/1 24/1/1 26/1/1
f 28/2/1 25/2/1 27/2/1
f 33/3/1 30/3/1 29/3/1
f 34/3/1 30/3/1 33/3/1
f 36/1/1 32/1/1 31/1/1
f 37/1/1 32/1/1 36/1/1
f 38/1/1 35/1/1 34/1/1
f 39/1/1 35/1/1 38/1/1
f 41/1/1 39/1/1 38/1/1
f 41/1/1 40/1/1 39/1/1
f 42/1/1 40/1/1 41/1/1
f 43/1/1 40/1/1 42/1/1
f 46/1/1 45/1/1 44/1/1
f 47/1/1 45/1/1 46/1/1
f 50/1/1 49/1/1 48/1/1
f 51/1/1 49/1/1 50/1/1
f 52/1/2 53/1/2 54/1/2
f 54/1/2 53/1/2 55/1/2
f 56/2/2 57/2/2 58/2/2
f 58/2/2 57/2/2 59/2/2
f 60/2/2 61/2/2 63/2/2
f 61/1/2 62/1/2 64/1/2
f 63/2/2 61/2/2 64/2/2
f 64/1/2 62/1/2 65/1/2
f 66/1/2 67/1/2 70/1/2
f 70/1/2 67/1/2 71/1/2
f 68/1/2 69/1/2 72/1/2
f 72/1/2 69/1/2 73/1/2
f 74/2/2 75/2/2 76/2/2
f 76/2/2 75/2/2 77/2/2
f 78/3/2 79/3/2 82/3/2
f 82/3/2 79/3/2 83/3/2
f 80/1/2 81/1/2 85/1/2
f 85/1/2 81/1/2 86/1/2
f 83/1/2 84/1/2 87/1/2
f 87/1/2 84/1/2 88/1/2
f 85/2/2 86/2/2 89/2/2
f 89/2/2 86/2/2 90/2/2
f 87/1/2 88/1/2 91/1/2
f 88/1/2 89/1/2 91/1/2
f 91/1/2 89/1/2 92/1/2
f 92/1/2 89/1/2 93/1/2
f 93/1/2 89/1/2 94/1/2
f 95/1/2 96/1/2 97/1/2
f 97/1/2 96/1/2 98/1/2
f 99/2/2 100/2/2 101/2/2
f 101/2/2 100/2/2 102/2/2
f 106/1/3 104/1/3 103/1/3
f 107/1/3 104/1/3 106/1/3
f 108/3/3 106/3/3 105/3/3
f 109/3/3 106/3/3 108/3/3
f 111/1/3 110/1/3 109/1/3
f 112/1/3 110/1/3 111/1/3
f 113/2/3 112/2/3 111/2/3
f 114/2/3 112/2/3 113/2/3
f 117/2/3 116/2/3 115/2/3
f 118/2/3 116/2/3 117/2/3
f 124/1/3 121/1/3 120/1/3
f 124/1/3 120/1/3 119/1/3
f 125/1/3 121/1/3 124/1/3
f 126/1/3 121/1/3 125/1/3
f 127/1/3 123/1/3 122/1/3
f 128/1/3 123/1/3 127/1/3
f 131/1/3 130/1/3 129/1/3
f 132/1/3 130/1/3 131/1/3
f 134/1/3 133/1/3 132/1/3
f 135/1/3 133/1/3 134/1/3
f 136/1/3 133/1/3 135/1/3
f 141/2/3 138/2/3 137/2/3
f 142/2/3 138/2/3 141/2/3
f 143/1/3 140/1/3 139/1/3
f 144/1/3 140/1/3 143/1/3
f 145/1/3 143/1/3 142/1/3
f 146/2/3 144/2/3 143/2/3
f 146/1/3 143/1/3 145/1/3
f 147/2/3 144/2/3 146/2/3
f 148/1/4 149/1/4 151/1/4
f 151/1/4 149/1/4 152/1/4
f 150/3/4 151/3/4 153/3/4
f 153/3/4 151/3/4 154/3/4
f 154/1/4 155/1/4 156/1/4
f 156/1/4 155/1/4 157/1/4
f 156/2/4 157/2/4 158/2/4
f 158/2/4 157/2/4 159/2/4
f 160/2/4 161/2/4 162/2/4
f 162/2/4 161/2/4 163/2/4
f 164/1/4 165/1/4 168/1/4
f 168/1/4 165/1/4 169/1/4
f 166/1/4 167/1/4 170/1/4
f 170/1/4 167/1/4 171/1/4
f 172/1/4 173/1/4 174/1/4
f 174/1/4 173/1/4 175/1/4
f 176/1/4 177/1/4 179/1/4
f 177/1/4 178/1/4 179/1/4
f 179/1/4 178/1/4 180/1/4
f 181/2/4 182/2/4 186/2/4
f 186/2/4 182/2/4 187/2/4
f 183/1/4 184/1/4 188/1/4
f 184/2/4 185/2/4 189/2/4
f 188/1/4 184/1/4 189/1/4
f 189/2/4 185/2/4 190/2/4
f 191/1/4 192/1/4 195/1/4
f 195/1/4 192/1/4 196/1/4
f 193/1/4 194/1/4 197/1/4
f 197/1/4 194/1/4 198/1/4
f 201/2/5 200/2/5 199/2/5
f 202/2/5 200/2/5 201/2/5
f 203/1/5 202/1/5 201/1/5
f 204/1/5 202/1/5 203/1/5
f 207/3/5 206/3/5 205/3/5
f 208/3/5 206/3/5 207/3/5
f 211/1/5 210/1/5 209/1/5
f 212/1/5 210/1/5 211/1/5
f 218/1/5 214/1/5 213/1/5
f 219/1/5 214/1/5 218/1/5
f 220/1/5 216/1/5 215/1/5
f 221/2/5 217/2/5 216/2/5
f 221/1/5 216/1/5 220/1/5
f 222/2/5 217/2/5 221/2/5
f 223/1/5 220/1/5 219/1/5
f 224/1/5 220/1/5 223/1/5
f 227/1/5 226/1/5 225/1/5
f 228/1/5 227/1/5 225/1/5
f 229/1/5 227/1/5 228/1/5
f 234/1/5 231/1/5 230/1/5
f 235/1/5 231/1/5 234/1/5
f 236/1/5 233/1/5 232/1/5
f 237/1/5 233/1/5 236/1/5
f 240/1/5 239/1/5 238/1/5
f 241/1/5 239/1/5 240/1/5
f 242/2/5 241/2/5 240/2/5
f 243/2/5 241/2/5 242/2/5
f 246/2/5 245/2/5 244/2/5
f 247/2/5 245/2/5 246/2/5
f 250/1/5 249/1/5 248/1/5
f 251/1/5 249/1/5 250/1/5
f 252/2/6 253/2/6 254/2/6
f 254/2/6 253/2/6 255/2/6
f 254/1/6 255/1/6 256/1/6
f 256/1/6 255/1/6 257/1/6
f 258/3/6 259/3/6 260/3/6
f 260/3/6 259/3/6 261/3/6
f 262/1/6 263/1/6 267/1/6
f 267/1/6 263/1/6 268/1/6
f 264/1/6 265/1/6 269/1/6
f 265/2/6 266/2/6 270/2/6
f 269/1/6 265/1/6 270/1/6
f 270/2/6 266/2/6 271/2/6
f 272/1/6 273/1/6 275/1/6
f 273/2/6 274/2/6 275/2/6
f 275/2/6 274/2/6 276/2/6
f 272/1/6 275/1/6 277/1/6
f 277/1/6 275/1/6 278/1/6
f 279/1/6 280/1/6 283/1/6
f 283/1/6 280/1/6 284/1/6
f 281/1/6 282/1/6 285/1/6
f 285/1/6 282/1/6 286/1/6
f 287/1/6 288/1/6 289/1/6
f 289/1/6 288/1/6 290/1/6
f 290/1/6 288/1/6 291/1/6
f 289/2/6 290/2/6 292/2/6
f 292/2/6 290/2/6 293/2/6
f 294/2/6 295/2/6 296/2/6
f 296/2/6 295/2/6 297/2/6
f 298/1/6 299/1/6 300/1/6
f 300/1/6 299/1/6 301/1/6
