# MagicaVoxel @ Ephtracy

# material
mtllib cube.mtl
usemtl palette

# normals
vn -1 0 0
vn 1 0 0
vn 0 0 1
vn 0 0 -1
vn 0 -1 0
vn 0 1 0

# texcoords
vt 0.00195312 0.5
vt 0.0996094 0.5
vt 0.294922 0.5
vt 0.982422 0.5

# verts
v -13 0 12.5
v -13 0 -12.5
v -13 1 11.5
v -13 1 -11.5
v -13 2 10.5
v -13 2 -10.5
v -13 23 10.5
v -13 23 -10.5
v -13 24 11.5
v -13 24 -11.5
v -13 25 12.5
v -13 25 -12.5
v -12 2 10.5
v -12 2 -10.5
v -12 23 10.5
v -12 23 -10.5
v 11 0 10.5
v 11 0 -10.5
v 11 1 10.5
v 11 1 -10.5
v 11 2 12.5
v 11 2 11.5
v 11 2 -11.5
v 11 2 -12.5
v 11 23 12.5
v 11 23 11.5
v 11 23 -11.5
v 11 23 -12.5
v 11 24 10.5
v 11 24 -10.5
v 11 25 10.5
v 11 25 -10.5
v -11 0 10.5
v -11 0 -10.5
v -11 1 10.5
v -11 1 -10.5
v -11 2 12.5
v -11 2 11.5
v -11 2 -11.5
v -11 2 -12.5
v -11 23 12.5
v -11 23 11.5
v -11 23 -11.5
v -11 23 -12.5
v -11 24 10.5
v -11 24 -10.5
v -11 25 10.5
v -11 25 -10.5
v 12 2 10.5
v 12 2 -10.5
v 12 23 10.5
v 12 23 -10.5
v 13 0 12.5
v 13 0 -12.5
v 13 1 11.5
v 13 1 -11.5
v 13 2 10.5
v 13 2 -10.5
v 13 23 10.5
v 13 23 -10.5
v 13 24 11.5
v 13 24 -11.5
v 13 25 12.5
v 13 25 -12.5
v -13 0 12.5
v -13 25 12.5
v -12 1 12.5
v -12 24 12.5
v -11 2 12.5
v -11 23 12.5
v 11 2 12.5
v 11 23 12.5
v 12 1 12.5
v 12 24 12.5
v 13 0 12.5
v 13 25 12.5
v -11 2 11.5
v -11 23 11.5
v 11 2 11.5
v 11 23 11.5
v -13 2 -10.5
v -13 23 -10.5
v -12 2 -10.5
v -12 23 -10.5
v -11 0 -10.5
v -11 1 -10.5
v -11 24 -10.5
v -11 25 -10.5
v 11 0 -10.5
v 11 1 -10.5
v 11 24 -10.5
v 11 25 -10.5
v 12 2 -10.5
v 12 23 -10.5
v 13 2 -10.5
v 13 23 -10.5
v -13 2 10.5
v -13 23 10.5
v -12 2 10.5
v -12 23 10.5
v -11 0 10.5
v -11 1 10.5
v -11 24 10.5
v -11 25 10.5
v 11 0 10.5
v 11 1 10.5
v 11 24 10.5
v 11 25 10.5
v 12 2 10.5
v 12 23 10.5
v 13 2 10.5
v 13 23 10.5
v -11 2 -11.5
v -11 23 -11.5
v 11 2 -11.5
v 11 23 -11.5
v -13 0 -12.5
v -13 25 -12.5
v -12 1 -12.5
v -12 24 -12.5
v -11 2 -12.5
v -11 23 -12.5
v 11 2 -12.5
v 11 23 -12.5
v 12 1 -12.5
v 12 24 -12.5
v 13 0 -12.5
v 13 25 -12.5
v -13 0 12.5
v 13 0 12.5
v -12 0 11.5
v 12 0 11.5
v -11 0 10.5
v 11 0 10.5
v -11 0 -10.5
v 11 0 -10.5
v -12 0 -11.5
v 12 0 -11.5
v -13 0 -12.5
v 13 0 -12.5
v -11 1 10.5
v 11 1 10.5
v -11 1 -10.5
v 11 1 -10.5
v -11 23 12.5
v 11 23 12.5
v -11 23 11.5
v 11 23 11.5
v -13 23 10.5
v -12 23 10.5
v 12 23 10.5
v 13 23 10.5
v -13 23 -10.5
v -12 23 -10.5
v 12 23 -10.5
v 13 23 -10.5
v -11 23 -11.5
v 11 23 -11.5
v -11 23 -12.5
v 11 23 -12.5
v -11 2 12.5
v 11 2 12.5
v -11 2 11.5
v 11 2 11.5
v -13 2 10.5
v -12 2 10.5
v 12 2 10.5
v 13 2 10.5
v -13 2 -10.5
v -12 2 -10.5
v 12 2 -10.5
v 13 2 -10.5
v -11 2 -11.5
v 11 2 -11.5
v -11 2 -12.5
v 11 2 -12.5
v -11 24 10.5
v 11 24 10.5
v -11 24 -10.5
v 11 24 -10.5
v -13 25 12.5
v 13 25 12.5
v -12 25 11.5
v 12 25 11.5
v -11 25 10.5
v 11 25 10.5
v -11 25 -10.5
v 11 25 -10.5
v -12 25 -11.5
v 12 25 -11.5
v -13 25 -12.5
v 13 25 -12.5

# faces
f 3/2/1 2/2/1 1/2/1
f 4/2/1 2/2/1 3/2/1
f 5/4/1 4/4/1 3/4/1
f 6/4/1 4/4/1 5/4/1
f 7/4/1 5/4/1 3/4/1
f 8/4/1 4/4/1 6/4/1
f 9/2/1 3/2/1 1/2/1
f 9/4/1 8/4/1 7/4/1
f 9/4/1 7/4/1 3/4/1
f 10/4/1 4/4/1 8/4/1
f 10/4/1 8/4/1 9/4/1
f 10/2/1 2/2/1 4/2/1
f 11/2/1 9/2/1 1/2/1
f 11/2/1 10/2/1 9/2/1
f 12/2/1 2/2/1 10/2/1
f 12/2/1 10/2/1 11/2/1
f 15/1/1 14/1/1 13/1/1
f 16/1/1 14/1/1 15/1/1
f 19/4/1 18/4/1 17/4/1
f 20/4/1 18/4/1 19/4/1
f 25/4/1 22/4/1 21/4/1
f 26/4/1 22/4/1 25/4/1
f 27/4/1 24/4/1 23/4/1
f 28/4/1 24/4/1 27/4/1
f 31/4/1 30/4/1 29/4/1
f 32/4/1 30/4/1 31/4/1
f 33/4/2 34/4/2 35/4/2
f 35/4/2 34/4/2 36/4/2
f 37/4/2 38/4/2 41/4/2
f 41/4/2 38/4/2 42/4/2
f 39/4/2 40/4/2 43/4/2
f 43/4/2 40/4/2 44/4/2
f 45/4/2 46/4/2 47/4/2
f 47/4/2 46/4/2 48/4/2
f 49/1/2 50/1/2 51/1/2
f 51/1/2 50/1/2 52/1/2
f 53/2/2 54/2/2 55/2/2
f 55/2/2 54/2/2 56/2/2
f 55/4/2 56/4/2 57/4/2
f 57/4/2 56/4/2 58/4/2
f 55/4/2 57/4/2 59/4/2
f 58/4/2 56/4/2 60/4/2
f 53/2/2 55/2/2 61/2/2
f 59/4/2 60/4/2 61/4/2
f 55/4/2 59/4/2 61/4/2
f 60/4/2 56/4/2 62/4/2
f 61/4/2 60/4/2 62/4/2
f 56/2/2 54/2/2 62/2/2
f 53/2/2 61/2/2 63/2/2
f 61/2/2 62/2/2 63/2/2
f 62/2/2 54/2/2 64/2/2
f 63/2/2 62/2/2 64/2/2
f 67/2/3 66/2/3 65/2/3
f 68/2/3 66/2/3 67/2/3
f 69/4/3 68/4/3 67/4/3
f 70/4/3 68/4/3 69/4/3
f 71/4/3 69/4/3 67/4/3
f 72/4/3 68/4/3 70/4/3
f 73/2/3 67/2/3 65/2/3
f 73/4/3 72/4/3 71/4/3
f 73/4/3 71/4/3 67/4/3
f 74/4/3 68/4/3 72/4/3
f 74/4/3 72/4/3 73/4/3
f 74/2/3 66/2/3 68/2/3
f 75/2/3 73/2/3 65/2/3
f 75/2/3 74/2/3 73/2/3
f 76/2/3 66/2/3 74/2/3
f 76/2/3 74/2/3 75/2/3
f 79/1/3 78/1/3 77/1/3
f 80/1/3 78/1/3 79/1/3
f 83/4/3 82/4/3 81/4/3
f 84/4/3 82/4/3 83/4/3
f 89/4/3 86/4/3 85/4/3
f 90/4/3 86/4/3 89/4/3
f 91/4/3 88/4/3 87/4/3
f 92/4/3 88/4/3 91/4/3
f 95/4/3 94/4/3 93/4/3
f 96/4/3 94/4/3 95/4/3
f 97/4/4 98/4/4 99/4/4
f 99/4/4 98/4/4 100/4/4
f 101/4/4 102/4/4 105/4/4
f 105/4/4 102/4/4 106/4/4
f 103/4/4 104/4/4 107/4/4
f 107/4/4 104/4/4 108/4/4
f 109/4/4 110/4/4 111/4/4
f 111/4/4 110/4/4 112/4/4
f 113/1/4 114/1/4 115/1/4
f 115/1/4 114/1/4 116/1/4
f 117/2/4 118/2/4 119/2/4
f 119/2/4 118/2/4 120/2/4
f 119/4/4 120/4/4 121/4/4
f 121/4/4 120/4/4 122/4/4
f 119/4/4 121/4/4 123/4/4
f 122/4/4 120/4/4 124/4/4
f 117/2/4 119/2/4 125/2/4
f 123/4/4 124/4/4 125/4/4
f 119/4/4 123/4/4 125/4/4
f 124/4/4 120/4/4 126/4/4
f 125/4/4 124/4/4 126/4/4
f 120/2/4 118/2/4 126/2/4
f 117/2/4 125/2/4 127/2/4
f 125/2/4 126/2/4 127/2/4
f 126/2/4 118/2/4 128/2/4
f 127/2/4 126/2/4 128/2/4
f 131/2/5 130/2/5 129/2/5
f 132/2/5 130/2/5 131/2/5
f 133/4/5 132/4/5 131/4/5
f 134/4/5 132/4/5 133/4/5
f 135/4/5 133/4/5 131/4/5
f 136/4/5 132/4/5 134/4/5
f 137/2/5 131/2/5 129/2/5
f 137/4/5 136/4/5 135/4/5
f 137/4/5 135/4/5 131/4/5
f 138/4/5 132/4/5 136/4/5
f 138/4/5 136/4/5 137/4/5
f 138/2/5 130/2/5 132/2/5
f 139/2/5 137/2/5 129/2/5
f 139/2/5 138/2/5 137/2/5
f 140/2/5 130/2/5 138/2/5
f 140/2/5 138/2/5 139/2/5
f 143/1/5 142/1/5 141/1/5
f 144/1/5 142/1/5 143/1/5
f 147/4/5 146/4/5 145/4/5
f 148/4/5 146/4/5 147/4/5
f 153/4/5 150/4/5 149/4/5
f 154/4/5 150/4/5 153/4/5
f 155/4/5 152/4/5 151/4/5
f 156/4/5 152/4/5 155/4/5
f 159/4/5 158/4/5 157/4/5
f 160/4/5 158/4/5 159/4/5
f 161/4/6 162/4/6 163/4/6
f 163/4/6 162/4/6 164/4/6
f 165/4/6 166/4/6 169/4/6
f 169/4/6 166/4/6 170/4/6
f 167/4/6 168/4/6 171/4/6
f 171/4/6 168/4/6 172/4/6
f 173/4/6 174/4/6 175/4/6
f 175/4/6 174/4/6 176/4/6
f 177/1/6 178/1/6 179/1/6
f 179/1/6 178/1/6 180/1/6
f 181/2/6 182/2/6 183/2/6
f 183/2/6 182/2/6 184/2/6
f 183/4/6 184/4/6 185/4/6
f 185/4/6 184/4/6 186/4/6
f 183/4/6 185/4/6 187/4/6
f 186/4/6 184/4/6 188/4/6
f 181/2/6 183/2/6 189/2/6
f 187/4/6 188/4/6 189/4/6
f 183/4/6 187/4/6 189/4/6
f 188/4/6 184/4/6 190/4/6
f 189/4/6 188/4/6 190/4/6
f 184/2/6 182/2/6 190/2/6
f 181/2/6 189/2/6 191/2/6
f 189/2/6 190/2/6 191/2/6
f 190/2/6 182/2/6 192/2/6
f 191/2/6 190/2/6 192/2/6
