# MagicaVoxel @ Ephtracy

# material
mtllib red anim-03.mtl
usemtl palette

# normals
vn -1 0 0
vn 1 0 0
vn 0 0 1
vn 0 0 -1
vn 0 -1 0
vn 0 1 0

# texcoords
vt 0.00195312 0.5
vt 0.0332031 0.5
vt 0.0605469 0.5
vt 0.142578 0.5
vt 0.275391 0.5
vt 0.357422 0.5
vt 0.451172 0.5
vt 0.521484 0.5
vt 0.611328 0.5
vt 0.634766 0.5
vt 0.646484 0.5
vt 0.958984 0.5
vt 0.974609 0.5
vt 0.990234 0.5
vt 0.994141 0.5

# verts
v -6 7 0.5
v -6 7 -0.5
v -6 8 0.5
v -6 8 -0.5
v -5 4 2.5
v -5 4 1.5
v -5 5 2.5
v -5 5 1.5
v -5 5 0.5
v -5 6 1.5
v -5 6 0.5
v -5 6 -0.5
v -5 7 1.5
v -5 7 0.5
v -5 7 -0.5
v -5 7 -1.5
v -5 8 0.5
v -5 8 -0.5
v -5 9 1.5
v -5 9 -1.5
v -4 6 1.5
v -4 6 0.5
v -4 6 -0.5
v -4 6 -1.5
v -4 7 1.5
v -4 7 0.5
v -4 7 -0.5
v -4 7 -1.5
v -4 8 2.5
v -4 8 1.5
v -4 8 -1.5
v -4 8 -2.5
v -4 9 2.5
v -4 9 1.5
v -4 9 -1.5
v -4 9 -2.5
v -3 0 1.5
v -3 0 -1.5
v -3 1 1.5
v -3 1 0.5
v -3 2 0.5
v -3 2 -1.5
v -3 3 1.5
v -3 3 0.5
v -3 3 -1.5
v -3 4 2.5
v -3 4 1.5
v -3 4 0.5
v -3 4 -1.5
v -3 4 -2.5
v -3 5 2.5
v -3 5 1.5
v -3 5 0.5
v -3 5 -1.5
v -3 5 -2.5
v -3 5 -3.5
v -3 6 2.5
v -3 6 1.5
v -3 6 -1.5
v -3 6 -2.5
v -3 6 -3.5
v -3 6 -4.5
v -3 7 2.5
v -3 7 1.5
v -3 7 -2.5
v -3 7 -4.5
v -3 8 3.5
v -3 8 2.5
v -3 8 1.5
v -3 8 -1.5
v -3 8 -2.5
v -3 8 -4.5
v -3 9 3.5
v -3 9 2.5
v -3 9 -2.5
v -3 9 -4.5
v -3 10 -2.5
v -3 10 -4.5
v -3 14 2.5
v -3 14 -2.5
v -1 7 3.5
v -1 7 2.5
v -1 8 3.5
v -1 8 2.5
v 1 1 1.5
v 1 1 -1.5
v 1 2 1.5
v 1 2 0.5
v 1 3 1.5
v 1 3 0.5
v 1 3 -1.5
v 1 4 1.5
v 1 4 -1.5
v 1 5 -2.5
v 1 5 -3.5
v 1 6 -2.5
v 1 6 -3.5
v 1 6 -4.5
v 1 7 -2.5
v 1 7 -4.5
v 1 8 3.5
v 1 8 2.5
v 1 8 -2.5
v 1 8 -3.5
v 1 8 -4.5
v 1 9 3.5
v 1 9 2.5
v 1 9 -2.5
v 1 9 -3.5
v 1 9 -4.5
v 1 10 -2.5
v 1 10 -4.5
v 4 4 -0.5
v 4 4 -1.5
v 4 5 -0.5
v 4 5 -1.5
v 4 6 -0.5
v 4 6 -1.5
v -4 4 2.5
v -4 4 1.5
v -4 5 2.5
v -4 5 1.5
v -4 5 0.5
v -4 6 1.5
v -4 6 0.5
v -1 0 1.5
v -1 0 -1.5
v -1 1 1.5
v -1 1 0.5
v -1 2 0.5
v -1 2 -1.5
v -1 3 1.5
v -1 3 0.5
v -1 3 -1.5
v -1 4 1.5
v -1 4 -1.5
v -1 5 -2.5
v -1 5 -3.5
v -1 6 -2.5
v -1 6 -3.5
v -1 6 -4.5
v -1 7 -2.5
v -1 7 -4.5
v -1 8 3.5
v -1 8 2.5
v -1 8 -2.5
v -1 8 -3.5
v -1 8 -4.5
v -1 9 3.5
v -1 9 2.5
v -1 9 -2.5
v -1 9 -3.5
v -1 9 -4.5
v -1 10 -2.5
v -1 10 -4.5
v 1 7 3.5
v 1 7 2.5
v 1 8 3.5
v 1 8 2.5
v 3 1 1.5
v 3 1 -1.5
v 3 2 1.5
v 3 2 0.5
v 3 3 1.5
v 3 3 0.5
v 3 3 -1.5
v 3 4 2.5
v 3 4 1.5
v 3 4 -1.5
v 3 4 -2.5
v 3 5 2.5
v 3 5 1.5
v 3 5 -1.5
v 3 5 -2.5
v 3 5 -3.5
v 3 6 2.5
v 3 6 1.5
v 3 6 -1.5
v 3 6 -2.5
v 3 6 -3.5
v 3 6 -4.5
v 3 7 2.5
v 3 7 1.5
v 3 7 -2.5
v 3 7 -4.5
v 3 8 3.5
v 3 8 2.5
v 3 8 1.5
v 3 8 -1.5
v 3 8 -2.5
v 3 8 -4.5
v 3 9 3.5
v 3 9 2.5
v 3 9 -2.5
v 3 9 -4.5
v 3 10 -2.5
v 3 10 -4.5
v 3 14 2.5
v 3 14 -2.5
v 4 6 1.5
v 4 6 0.5
v 4 6 -0.5
v 4 6 -1.5
v 4 7 1.5
v 4 7 0.5
v 4 7 -0.5
v 4 7 -1.5
v 4 8 2.5
v 4 8 1.5
v 4 8 -1.5
v 4 8 -2.5
v 4 9 2.5
v 4 9 1.5
v 4 9 -1.5
v 4 9 -2.5
v 5 4 -0.5
v 5 4 -1.5
v 5 5 -0.5
v 5 5 -1.5
v 5 6 0.5
v 5 6 -0.5
v 5 6 -1.5
v 5 7 1.5
v 5 7 0.5
v 5 7 -0.5
v 5 7 -1.5
v 5 8 0.5
v 5 8 -0.5
v 5 9 1.5
v 5 9 -1.5
v 6 7 0.5
v 6 7 -0.5
v 6 8 0.5
v 6 8 -0.5
v -3 8 3.5
v -3 9 3.5
v -1 7 3.5
v -1 8 3.5
v -1 9 3.5
v 1 7 3.5
v 1 8 3.5
v 1 9 3.5
v 3 8 3.5
v 3 9 3.5
v -5 4 2.5
v -5 5 2.5
v -4 4 2.5
v -4 5 2.5
v -4 8 2.5
v -4 9 2.5
v -3 4 2.5
v -3 5 2.5
v -3 6 2.5
v -3 7 2.5
v -3 8 2.5
v -3 9 2.5
v -3 14 2.5
v -2 5 2.5
v -2 6 2.5
v -2 7 2.5
v -2 8 2.5
v -2 10 2.5
v -2 11 2.5
v -1 4 2.5
v -1 5 2.5
v -1 6 2.5
v -1 7 2.5
v -1 8 2.5
v -1 9 2.5
v -1 10 2.5
v -1 11 2.5
v 1 4 2.5
v 1 5 2.5
v 1 6 2.5
v 1 7 2.5
v 1 8 2.5
v 1 9 2.5
v 1 10 2.5
v 1 11 2.5
v 2 5 2.5
v 2 6 2.5
v 2 7 2.5
v 2 8 2.5
v 2 10 2.5
v 2 11 2.5
v 3 4 2.5
v 3 5 2.5
v 3 6 2.5
v 3 7 2.5
v 3 8 2.5
v 3 9 2.5
v 3 14 2.5
v 4 8 2.5
v 4 9 2.5
v -5 5 1.5
v -5 6 1.5
v -5 7 1.5
v -5 9 1.5
v -4 5 1.5
v -4 6 1.5
v -4 7 1.5
v -4 8 1.5
v -4 9 1.5
v -3 0 1.5
v -3 1 1.5
v -3 3 1.5
v -3 4 1.5
v -3 6 1.5
v -3 7 1.5
v -3 8 1.5
v -1 0 1.5
v -1 1 1.5
v -1 3 1.5
v -1 4 1.5
v 1 1 1.5
v 1 2 1.5
v 1 3 1.5
v 1 4 1.5
v 3 1 1.5
v 3 2 1.5
v 3 3 1.5
v 3 4 1.5
v 3 6 1.5
v 3 7 1.5
v 3 8 1.5
v 4 6 1.5
v 4 7 1.5
v 4 8 1.5
v 4 9 1.5
v 5 7 1.5
v 5 9 1.5
v -6 7 0.5
v -6 8 0.5
v -5 6 0.5
v -5 7 0.5
v -5 8 0.5
v -4 6 0.5
v -4 7 0.5
v -3 1 0.5
v -3 2 0.5
v -3 3 0.5
v -1 1 0.5
v -1 2 0.5
v -1 3 0.5
v 1 2 0.5
v 1 3 0.5
v 3 2 0.5
v 3 3 0.5
v 4 6 0.5
v 4 7 0.5
v 5 6 0.5
v 5 7 0.5
v 5 8 0.5
v 6 7 0.5
v 6 8 0.5
v 4 4 -0.5
v 4 5 -0.5
v 4 6 -0.5
v 5 4 -0.5
v 5 5 -0.5
v 5 6 -0.5
v -5 4 1.5
v -5 5 1.5
v -4 4 1.5
v -4 5 1.5
v -5 5 0.5
v -5 6 0.5
v -4 5 0.5
v -4 6 0.5
v -6 7 -0.5
v -6 8 -0.5
v -5 6 -0.5
v -5 7 -0.5
v -5 8 -0.5
v -4 6 -0.5
v -4 7 -0.5
v 4 6 -0.5
v 4 7 -0.5
v 5 6 -0.5
v 5 7 -0.5
v 5 8 -0.5
v 6 7 -0.5
v 6 8 -0.5
v -5 7 -1.5
v -5 9 -1.5
v -4 6 -1.5
v -4 7 -1.5
v -4 8 -1.5
v -4 9 -1.5
v -3 0 -1.5
v -3 2 -1.5
v -3 3 -1.5
v -3 4 -1.5
v -3 6 -1.5
v -3 8 -1.5
v -2 4 -1.5
v -1 0 -1.5
v -1 2 -1.5
v -1 3 -1.5
v -1 4 -1.5
v 1 1 -1.5
v 1 3 -1.5
v 1 4 -1.5
v 2 4 -1.5
v 3 1 -1.5
v 3 3 -1.5
v 3 4 -1.5
v 3 6 -1.5
v 3 8 -1.5
v 4 4 -1.5
v 4 5 -1.5
v 4 6 -1.5
v 4 7 -1.5
v 4 8 -1.5
v 4 9 -1.5
v 5 4 -1.5
v 5 5 -1.5
v 5 6 -1.5
v 5 7 -1.5
v 5 9 -1.5
v -4 8 -2.5
v -4 9 -2.5
v -3 4 -2.5
v -3 5 -2.5
v -3 8 -2.5
v -3 9 -2.5
v -3 10 -2.5
v -3 14 -2.5
v -2 4 -2.5
v -2 5 -2.5
v -1 4 -2.5
v -1 5 -2.5
v -1 6 -2.5
v -1 7 -2.5
v -1 8 -2.5
v -1 9 -2.5
v -1 10 -2.5
v 1 4 -2.5
v 1 5 -2.5
v 1 6 -2.5
v 1 7 -2.5
v 1 8 -2.5
v 1 9 -2.5
v 1 10 -2.5
v 2 4 -2.5
v 2 5 -2.5
v 3 4 -2.5
v 3 5 -2.5
v 3 8 -2.5
v 3 9 -2.5
v 3 10 -2.5
v 3 14 -2.5
v 4 8 -2.5
v 4 9 -2.5
v -3 5 -3.5
v -3 6 -3.5
v -1 5 -3.5
v -1 6 -3.5
v -1 8 -3.5
v -1 9 -3.5
v 1 5 -3.5
v 1 6 -3.5
v 1 8 -3.5
v 1 9 -3.5
v 3 5 -3.5
v 3 6 -3.5
v -3 6 -4.5
v -3 7 -4.5
v -3 8 -4.5
v -3 9 -4.5
v -3 10 -4.5
v -1 6 -4.5
v -1 7 -4.5
v -1 8 -4.5
v -1 9 -4.5
v -1 10 -4.5
v 1 6 -4.5
v 1 7 -4.5
v 1 8 -4.5
v 1 9 -4.5
v 1 10 -4.5
v 3 6 -4.5
v 3 7 -4.5
v 3 8 -4.5
v 3 9 -4.5
v 3 10 -4.5
v -3 0 1.5
v -1 0 1.5
v -3 0 -1.5
v -1 0 -1.5
v 1 1 1.5
v 3 1 1.5
v 1 1 -1.5
v 3 1 -1.5
v -3 3 1.5
v -1 3 1.5
v 1 3 1.5
v 3 3 1.5
v -3 3 0.5
v -1 3 0.5
v 1 3 0.5
v 3 3 0.5
v -5 4 2.5
v -4 4 2.5
v -3 4 2.5
v -1 4 2.5
v 1 4 2.5
v 3 4 2.5
v -5 4 1.5
v -4 4 1.5
v -3 4 1.5
v -1 4 1.5
v 1 4 1.5
v 3 4 1.5
v 4 4 -0.5
v 5 4 -0.5
v -3 4 -1.5
v -2 4 -1.5
v -1 4 -1.5
v 1 4 -1.5
v 2 4 -1.5
v 3 4 -1.5
v 4 4 -1.5
v 5 4 -1.5
v -3 4 -2.5
v -2 4 -2.5
v -1 4 -2.5
v 1 4 -2.5
v 2 4 -2.5
v 3 4 -2.5
v -5 5 1.5
v -4 5 1.5
v -5 5 0.5
v -4 5 0.5
v -3 5 -2.5
v -2 5 -2.5
v -1 5 -2.5
v 1 5 -2.5
v 2 5 -2.5
v 3 5 -2.5
v -3 5 -3.5
v -1 5 -3.5
v 1 5 -3.5
v 3 5 -3.5
v -4 6 1.5
v -3 6 1.5
v 3 6 1.5
v 4 6 1.5
v -5 6 0.5
v -4 6 0.5
v 4 6 0.5
v 5 6 0.5
v -5 6 -0.5
v -4 6 -0.5
v 4 6 -0.5
v 5 6 -0.5
v -4 6 -1.5
v -3 6 -1.5
v 3 6 -1.5
v 4 6 -1.5
v -3 6 -3.5
v -1 6 -3.5
v 1 6 -3.5
v 3 6 -3.5
v -3 6 -4.5
v -1 6 -4.5
v 1 6 -4.5
v 3 6 -4.5
v -1 7 3.5
v 1 7 3.5
v -1 7 2.5
v 1 7 2.5
v -5 7 1.5
v -4 7 1.5
v 4 7 1.5
v 5 7 1.5
v -6 7 0.5
v -5 7 0.5
v -4 7 0.5
v 4 7 0.5
v 5 7 0.5
v 6 7 0.5
v -6 7 -0.5
v -5 7 -0.5
v -4 7 -0.5
v 4 7 -0.5
v 5 7 -0.5
v 6 7 -0.5
v -5 7 -1.5
v -4 7 -1.5
v 4 7 -1.5
v 5 7 -1.5
v -3 8 3.5
v -1 8 3.5
v 1 8 3.5
v 3 8 3.5
v -4 8 2.5
v -3 8 2.5
v -2 8 2.5
v -1 8 2.5
v 1 8 2.5
v 2 8 2.5
v 3 8 2.5
v 4 8 2.5
v -4 8 1.5
v -3 8 1.5
v 3 8 1.5
v 4 8 1.5
v -4 8 -1.5
v -3 8 -1.5
v 3 8 -1.5
v 4 8 -1.5
v -4 8 -2.5
v -3 8 -2.5
v -1 8 -2.5
v 1 8 -2.5
v 3 8 -2.5
v 4 8 -2.5
v -1 8 -3.5
v 1 8 -3.5
v -3 1 1.5
v -1 1 1.5
v -3 1 0.5
v -1 1 0.5
v 1 2 1.5
v 3 2 1.5
v 1 2 0.5
v 3 2 0.5
v -5 5 2.5
v -4 5 2.5
v -5 5 1.5
v -4 5 1.5
v -5 6 1.5
v -4 6 1.5
v -5 6 0.5
v -4 6 0.5
v 4 6 -0.5
v 5 6 -0.5
v 4 6 -1.5
v 5 6 -1.5
v -1 8 3.5
v 1 8 3.5
v -1 8 2.5
v 1 8 2.5
v -6 8 0.5
v -5 8 0.5
v 5 8 0.5
v 6 8 0.5
v -6 8 -0.5
v -5 8 -0.5
v 5 8 -0.5
v 6 8 -0.5
v -3 9 3.5
v -1 9 3.5
v 1 9 3.5
v 3 9 3.5
v -4 9 2.5
v -3 9 2.5
v -1 9 2.5
v 1 9 2.5
v 3 9 2.5
v 4 9 2.5
v -5 9 1.5
v -4 9 1.5
v 4 9 1.5
v 5 9 1.5
v -5 9 -1.5
v -4 9 -1.5
v 4 9 -1.5
v 5 9 -1.5
v -4 9 -2.5
v -3 9 -2.5
v -1 9 -2.5
v 1 9 -2.5
v 3 9 -2.5
v 4 9 -2.5
v -1 9 -3.5
v 1 9 -3.5
v -3 10 -2.5
v -1 10 -2.5
v 1 10 -2.5
v 3 10 -2.5
v -3 10 -4.5
v -1 10 -4.5
v 1 10 -4.5
v 3 10 -4.5
v -3 14 2.5
v 3 14 2.5
v -3 14 -2.5
v 3 14 -2.5

# faces
f 3/5/1 2/5/1 1/5/1
f 4/5/1 2/5/1 3/5/1
f 7/2/1 6/2/1 5/2/1
f 8/2/1 6/2/1 7/2/1
f 10/12/1 9/12/1 8/12/1
f 11/12/1 9/12/1 10/12/1
f 14/12/1 12/12/1 11/12/1
f 15/12/1 12/12/1 14/12/1
f 17/12/1 14/12/1 13/12/1
f 18/12/1 16/12/1 15/12/1
f 19/12/1 17/12/1 13/12/1
f 19/12/1 18/12/1 17/12/1
f 20/12/1 16/12/1 18/12/1
f 20/12/1 18/12/1 19/12/1
f 25/12/1 22/12/1 21/12/1
f 26/12/1 22/12/1 25/12/1
f 27/12/1 24/12/1 23/12/1
f 28/12/1 24/12/1 27/12/1
f 33/13/1 30/13/1 29/13/1
f 34/13/1 30/13/1 33/13/1
f 35/13/1 32/13/1 31/13/1
f 36/13/1 32/13/1 35/13/1
f 39/14/1 38/14/1 37/14/1
f 40/14/1 38/14/1 39/14/1
f 41/14/1 38/14/1 40/14/1
f 42/14/1 38/14/1 41/14/1
f 44/12/1 42/12/1 41/12/1
f 45/12/1 42/12/1 44/12/1
f 47/5/1 44/5/1 43/5/1
f 47/5/1 45/5/1 44/5/1
f 48/5/1 45/5/1 47/5/1
f 49/5/1 45/5/1 48/5/1
f 51/5/1 48/5/1 47/5/1
f 51/5/1 47/5/1 46/5/1
f 52/5/1 48/5/1 51/5/1
f 53/12/1 49/12/1 48/12/1
f 53/5/1 48/5/1 52/5/1
f 54/13/1 50/13/1 49/13/1
f 54/12/1 49/12/1 53/12/1
f 55/13/1 50/13/1 54/13/1
f 57/13/1 52/13/1 51/13/1
f 58/5/1 53/5/1 52/5/1
f 58/13/1 52/13/1 57/13/1
f 58/5/1 54/5/1 53/5/1
f 59/13/1 55/13/1 54/13/1
f 59/5/1 54/5/1 58/5/1
f 60/12/1 56/12/1 55/12/1
f 60/13/1 55/13/1 59/13/1
f 61/12/1 56/12/1 60/12/1
f 63/5/1 58/5/1 57/5/1
f 64/5/1 58/5/1 63/5/1
f 65/13/1 62/13/1 61/13/1
f 65/13/1 61/13/1 60/13/1
f 65/13/1 60/13/1 59/13/1
f 66/13/1 62/13/1 65/13/1
f 68/13/1 64/13/1 63/13/1
f 69/13/1 64/13/1 68/13/1
f 70/13/1 65/13/1 59/13/1
f 71/12/1 66/12/1 65/12/1
f 71/13/1 65/13/1 70/13/1
f 72/12/1 66/12/1 71/12/1
f 73/13/1 68/13/1 67/13/1
f 74/13/1 68/13/1 73/13/1
f 75/13/1 72/13/1 71/13/1
f 76/13/1 72/13/1 75/13/1
f 77/2/1 75/2/1 74/2/1
f 77/12/1 76/12/1 75/12/1
f 78/12/1 76/12/1 77/12/1
f 79/2/1 77/2/1 74/2/1
f 80/2/1 77/2/1 79/2/1
f 83/13/1 82/13/1 81/13/1
f 84/13/1 82/13/1 83/13/1
f 87/14/1 86/14/1 85/14/1
f 88/14/1 86/14/1 87/14/1
f 90/14/1 86/14/1 88/14/1
f 91/14/1 86/14/1 90/14/1
f 92/5/1 90/5/1 89/5/1
f 92/5/1 91/5/1 90/5/1
f 93/5/1 91/5/1 92/5/1
f 96/12/1 95/12/1 94/12/1
f 97/12/1 95/12/1 96/12/1
f 99/13/1 97/13/1 96/13/1
f 99/13/1 98/13/1 97/13/1
f 100/13/1 98/13/1 99/13/1
f 103/12/1 100/12/1 99/12/1
f 104/12/1 100/12/1 103/12/1
f 105/12/1 100/12/1 104/12/1
f 106/13/1 102/13/1 101/13/1
f 107/13/1 102/13/1 106/13/1
f 109/13/1 105/13/1 104/13/1
f 110/13/1 105/13/1 109/13/1
f 111/12/1 109/12/1 108/12/1
f 111/12/1 110/12/1 109/12/1
f 112/12/1 110/12/1 111/12/1
f 115/2/1 114/2/1 113/2/1
f 116/2/1 114/2/1 115/2/1
f 117/12/1 116/12/1 115/12/1
f 118/12/1 116/12/1 117/12/1
f 119/2/2 120/2/2 121/2/2
f 121/2/2 120/2/2 122/2/2
f 122/12/2 123/12/2 124/12/2
f 124/12/2 123/12/2 125/12/2
f 126/14/2 127/14/2 128/14/2
f 128/14/2 127/14/2 129/14/2
f 129/14/2 127/14/2 130/14/2
f 130/14/2 127/14/2 131/14/2
f 130/12/2 131/12/2 133/12/2
f 133/12/2 131/12/2 134/12/2
f 132/5/2 133/5/2 135/5/2
f 133/5/2 134/5/2 135/5/2
f 135/5/2 134/5/2 136/5/2
f 137/12/2 138/12/2 139/12/2
f 139/12/2 138/12/2 140/12/2
f 139/13/2 140/13/2 142/13/2
f 140/13/2 141/13/2 142/13/2
f 142/13/2 141/13/2 143/13/2
f 142/12/2 143/12/2 146/12/2
f 146/12/2 143/12/2 147/12/2
f 147/12/2 143/12/2 148/12/2
f 144/13/2 145/13/2 149/13/2
f 149/13/2 145/13/2 150/13/2
f 147/13/2 148/13/2 152/13/2
f 152/13/2 148/13/2 153/13/2
f 151/12/2 152/12/2 154/12/2
f 152/12/2 153/12/2 154/12/2
f 154/12/2 153/12/2 155/12/2
f 156/13/2 157/13/2 158/13/2
f 158/13/2 157/13/2 159/13/2
f 160/14/2 161/14/2 162/14/2
f 162/14/2 161/14/2 163/14/2
f 163/14/2 161/14/2 165/14/2
f 165/14/2 161/14/2 166/14/2
f 164/5/2 165/5/2 168/5/2
f 165/5/2 166/5/2 168/5/2
f 168/5/2 166/5/2 169/5/2
f 167/5/2 168/5/2 171/5/2
f 168/12/2 169/12/2 172/12/2
f 171/5/2 168/5/2 172/5/2
f 169/13/2 170/13/2 173/13/2
f 172/12/2 169/12/2 173/12/2
f 173/13/2 170/13/2 174/13/2
f 171/13/2 172/13/2 176/13/2
f 172/5/2 173/5/2 177/5/2
f 176/13/2 172/13/2 177/13/2
f 173/13/2 174/13/2 178/13/2
f 177/5/2 173/5/2 178/5/2
f 174/12/2 175/12/2 179/12/2
f 178/13/2 174/13/2 179/13/2
f 179/12/2 175/12/2 180/12/2
f 176/5/2 177/5/2 182/5/2
f 182/5/2 177/5/2 183/5/2
f 180/13/2 181/13/2 184/13/2
f 179/13/2 180/13/2 184/13/2
f 178/13/2 179/13/2 184/13/2
f 184/13/2 181/13/2 185/13/2
f 182/13/2 183/13/2 187/13/2
f 187/13/2 183/13/2 188/13/2
f 178/13/2 184/13/2 189/13/2
f 184/12/2 185/12/2 190/12/2
f 189/13/2 184/13/2 190/13/2
f 190/12/2 185/12/2 191/12/2
f 186/13/2 187/13/2 192/13/2
f 192/13/2 187/13/2 193/13/2
f 190/13/2 191/13/2 194/13/2
f 194/13/2 191/13/2 195/13/2
f 193/2/2 194/2/2 196/2/2
f 194/12/2 195/12/2 196/12/2
f 196/12/2 195/12/2 197/12/2
f 193/2/2 196/2/2 198/2/2
f 198/2/2 196/2/2 199/2/2
f 200/12/2 201/12/2 204/12/2
f 204/12/2 201/12/2 205/12/2
f 202/12/2 203/12/2 206/12/2
f 206/12/2 203/12/2 207/12/2
f 208/13/2 209/13/2 212/13/2
f 212/13/2 209/13/2 213/13/2
f 210/13/2 211/13/2 214/13/2
f 214/13/2 211/13/2 215/13/2
f 216/2/2 217/2/2 218/2/2
f 218/2/2 217/2/2 219/2/2
f 218/12/2 219/12/2 221/12/2
f 221/12/2 219/12/2 222/12/2
f 220/12/2 221/12/2 224/12/2
f 224/12/2 221/12/2 225/12/2
f 223/12/2 224/12/2 227/12/2
f 225/12/2 226/12/2 228/12/2
f 223/12/2 227/12/2 229/12/2
f 227/12/2 228/12/2 229/12/2
f 228/12/2 226/12/2 230/12/2
f 229/12/2 228/12/2 230/12/2
f 231/5/2 232/5/2 233/5/2
f 233/5/2 232/5/2 234/5/2
f 238/13/3 236/13/3 235/13/3
f 239/13/3 236/13/3 238/13/3
f 240/13/3 238/13/3 237/13/3
f 241/13/3 238/13/3 240/13/3
f 243/13/3 242/13/3 241/13/3
f 244/13/3 242/13/3 243/13/3
f 247/2/3 246/2/3 245/2/3
f 248/2/3 246/2/3 247/2/3
f 255/13/3 250/13/3 249/13/3
f 256/13/3 250/13/3 255/13/3
f 258/5/3 252/5/3 251/5/3
f 258/13/3 253/13/3 252/13/3
f 259/5/3 254/5/3 253/5/3
f 259/13/3 253/13/3 258/13/3
f 260/13/3 255/13/3 254/13/3
f 260/5/3 254/5/3 259/5/3
f 261/13/3 255/13/3 260/13/3
f 262/2/3 257/2/3 256/2/3
f 263/2/3 257/2/3 262/2/3
f 264/5/3 258/5/3 251/5/3
f 265/12/3 259/12/3 258/12/3
f 265/5/3 258/5/3 264/5/3
f 266/5/3 260/5/3 259/5/3
f 266/12/3 259/12/3 265/12/3
f 267/12/3 261/12/3 260/12/3
f 267/5/3 260/5/3 266/5/3
f 268/12/3 261/12/3 267/12/3
f 269/2/3 262/2/3 256/2/3
f 270/15/3 263/15/3 262/15/3
f 270/2/3 262/2/3 269/2/3
f 271/2/3 257/2/3 263/2/3
f 271/15/3 263/15/3 270/15/3
f 272/12/3 266/12/3 265/12/3
f 272/12/3 265/12/3 264/12/3
f 272/12/3 267/12/3 266/12/3
f 273/12/3 267/12/3 272/12/3
f 274/12/3 267/12/3 273/12/3
f 275/12/3 267/12/3 274/12/3
f 276/2/3 270/2/3 269/2/3
f 276/2/3 271/2/3 270/2/3
f 276/2/3 269/2/3 268/2/3
f 277/2/3 271/2/3 276/2/3
f 278/2/3 271/2/3 277/2/3
f 279/2/3 257/2/3 271/2/3
f 279/2/3 271/2/3 278/2/3
f 280/12/3 274/12/3 273/12/3
f 280/5/3 273/5/3 272/5/3
f 281/5/3 275/5/3 274/5/3
f 281/12/3 274/12/3 280/12/3
f 282/12/3 276/12/3 275/12/3
f 282/5/3 275/5/3 281/5/3
f 283/12/3 276/12/3 282/12/3
f 284/2/3 278/2/3 277/2/3
f 284/15/3 279/15/3 278/15/3
f 285/2/3 257/2/3 279/2/3
f 285/15/3 279/15/3 284/15/3
f 286/5/3 280/5/3 272/5/3
f 287/13/3 281/13/3 280/13/3
f 287/5/3 280/5/3 286/5/3
f 288/5/3 282/5/3 281/5/3
f 288/13/3 281/13/3 287/13/3
f 289/13/3 283/13/3 282/13/3
f 289/5/3 282/5/3 288/5/3
f 290/13/3 283/13/3 289/13/3
f 291/2/3 284/2/3 277/2/3
f 291/2/3 285/2/3 284/2/3
f 292/2/3 257/2/3 285/2/3
f 292/2/3 285/2/3 291/2/3
f 293/13/3 291/13/3 290/13/3
f 294/13/3 291/13/3 293/13/3
f 299/12/3 296/12/3 295/12/3
f 300/12/3 296/12/3 299/12/3
f 301/12/3 298/12/3 297/12/3
f 302/12/3 298/12/3 301/12/3
f 303/12/3 298/12/3 302/12/3
f 308/12/3 301/12/3 300/12/3
f 308/12/3 302/12/3 301/12/3
f 309/12/3 302/12/3 308/12/3
f 310/12/3 302/12/3 309/12/3
f 311/14/3 305/14/3 304/14/3
f 312/14/3 305/14/3 311/14/3
f 313/5/3 307/5/3 306/5/3
f 314/5/3 307/5/3 313/5/3
f 319/14/3 316/14/3 315/14/3
f 320/14/3 316/14/3 319/14/3
f 321/5/3 318/5/3 317/5/3
f 322/5/3 318/5/3 321/5/3
f 326/12/3 325/12/3 324/12/3
f 326/12/3 324/12/3 323/12/3
f 327/12/3 325/12/3 326/12/3
f 328/12/3 325/12/3 327/12/3
f 330/12/3 328/12/3 327/12/3
f 330/12/3 329/12/3 328/12/3
f 331/12/3 329/12/3 330/12/3
f 335/5/3 333/5/3 332/5/3
f 336/5/3 333/5/3 335/5/3
f 337/12/3 335/12/3 334/12/3
f 338/12/3 335/12/3 337/12/3
f 342/14/3 340/14/3 339/14/3
f 343/12/3 341/12/3 340/12/3
f 343/14/3 340/14/3 342/14/3
f 344/12/3 341/12/3 343/12/3
f 347/14/3 346/14/3 345/14/3
f 348/14/3 346/14/3 347/14/3
f 351/12/3 350/12/3 349/12/3
f 352/12/3 350/12/3 351/12/3
f 354/5/3 353/5/3 352/5/3
f 355/5/3 353/5/3 354/5/3
f 359/2/3 357/2/3 356/2/3
f 360/12/3 358/12/3 357/12/3
f 360/2/3 357/2/3 359/2/3
f 361/12/3 358/12/3 360/12/3
f 362/2/4 363/2/4 364/2/4
f 364/2/4 363/2/4 365/2/4
f 366/12/4 367/12/4 368/12/4
f 368/12/4 367/12/4 369/12/4
f 370/5/4 371/5/4 373/5/4
f 373/5/4 371/5/4 374/5/4
f 372/12/4 373/12/4 375/12/4
f 375/12/4 373/12/4 376/12/4
f 377/12/4 378/12/4 379/12/4
f 379/12/4 378/12/4 380/12/4
f 380/5/4 381/5/4 382/5/4
f 382/5/4 381/5/4 383/5/4
f 384/12/4 385/12/4 387/12/4
f 387/12/4 385/12/4 388/12/4
f 388/12/4 385/12/4 389/12/4
f 386/12/4 387/12/4 394/12/4
f 387/12/4 388/12/4 394/12/4
f 394/12/4 388/12/4 395/12/4
f 392/5/4 393/5/4 396/5/4
f 390/14/4 391/14/4 397/14/4
f 391/12/4 392/12/4 398/12/4
f 397/14/4 391/14/4 398/14/4
f 392/5/4 396/5/4 399/5/4
f 398/12/4 392/12/4 399/12/4
f 399/5/4 396/5/4 400/5/4
f 402/5/4 403/5/4 404/5/4
f 401/14/4 402/14/4 405/14/4
f 402/5/4 404/5/4 406/5/4
f 405/14/4 402/14/4 406/14/4
f 406/5/4 404/5/4 407/5/4
f 408/12/4 409/12/4 412/12/4
f 412/12/4 409/12/4 413/12/4
f 413/12/4 409/12/4 414/12/4
f 410/2/4 411/2/4 416/2/4
f 411/12/4 412/12/4 417/12/4
f 416/2/4 411/2/4 417/2/4
f 417/12/4 412/12/4 418/12/4
f 413/12/4 414/12/4 419/12/4
f 414/12/4 415/12/4 419/12/4
f 419/12/4 415/12/4 420/12/4
f 421/13/4 422/13/4 425/13/4
f 425/13/4 422/13/4 426/13/4
f 423/13/4 424/13/4 429/13/4
f 429/13/4 424/13/4 430/13/4
f 429/5/4 430/5/4 431/5/4
f 431/5/4 430/5/4 432/5/4
f 427/2/4 428/2/4 437/2/4
f 434/12/4 435/12/4 438/12/4
f 431/12/4 432/12/4 438/12/4
f 432/12/4 433/12/4 438/12/4
f 433/12/4 434/12/4 438/12/4
f 438/12/4 435/12/4 439/12/4
f 439/12/4 435/12/4 440/12/4
f 440/12/4 435/12/4 441/12/4
f 441/12/4 435/12/4 442/12/4
f 436/2/4 437/2/4 443/2/4
f 437/2/4 428/2/4 444/2/4
f 443/2/4 437/2/4 444/2/4
f 438/5/4 439/5/4 445/5/4
f 445/5/4 439/5/4 446/5/4
f 445/13/4 446/13/4 447/13/4
f 447/13/4 446/13/4 448/13/4
f 444/2/4 428/2/4 451/2/4
f 451/2/4 428/2/4 452/2/4
f 449/13/4 450/13/4 453/13/4
f 453/13/4 450/13/4 454/13/4
f 455/12/4 456/12/4 457/12/4
f 457/12/4 456/12/4 458/12/4
f 459/13/4 460/13/4 463/13/4
f 463/13/4 460/13/4 464/13/4
f 461/12/4 462/12/4 465/12/4
f 465/12/4 462/12/4 466/12/4
f 467/13/4 468/13/4 472/13/4
f 468/12/4 469/12/4 473/12/4
f 472/13/4 468/13/4 473/13/4
f 469/13/4 470/13/4 474/13/4
f 473/12/4 469/12/4 474/12/4
f 470/12/4 471/12/4 475/12/4
f 474/13/4 470/13/4 475/13/4
f 475/12/4 471/12/4 476/12/4
f 477/13/4 478/13/4 482/13/4
f 478/12/4 479/12/4 483/12/4
f 482/13/4 478/13/4 483/13/4
f 479/13/4 480/13/4 484/13/4
f 483/12/4 479/12/4 484/12/4
f 480/12/4 481/12/4 485/12/4
f 484/13/4 480/13/4 485/13/4
f 485/12/4 481/12/4 486/12/4
f 489/14/5 488/14/5 487/14/5
f 490/14/5 488/14/5 489/14/5
f 493/14/5 492/14/5 491/14/5
f 494/14/5 492/14/5 493/14/5
f 499/5/5 496/5/5 495/5/5
f 500/5/5 496/5/5 499/5/5
f 501/5/5 498/5/5 497/5/5
f 502/5/5 498/5/5 501/5/5
f 509/2/5 504/2/5 503/2/5
f 510/2/5 504/2/5 509/2/5
f 511/5/5 506/5/5 505/5/5
f 512/12/5 507/12/5 506/12/5
f 512/5/5 506/5/5 511/5/5
f 513/5/5 508/5/5 507/5/5
f 513/12/5 507/12/5 512/12/5
f 514/5/5 508/5/5 513/5/5
f 519/12/5 513/12/5 512/12/5
f 520/12/5 513/12/5 519/12/5
f 523/2/5 516/2/5 515/2/5
f 524/2/5 516/2/5 523/2/5
f 525/13/5 518/13/5 517/13/5
f 526/5/5 519/5/5 518/5/5
f 526/13/5 518/13/5 525/13/5
f 527/12/5 520/12/5 519/12/5
f 527/5/5 519/5/5 526/5/5
f 528/5/5 521/5/5 520/5/5
f 528/12/5 520/12/5 527/12/5
f 529/13/5 522/13/5 521/13/5
f 529/5/5 521/5/5 528/5/5
f 530/13/5 522/13/5 529/13/5
f 533/12/5 532/12/5 531/12/5
f 534/12/5 532/12/5 533/12/5
f 541/12/5 536/12/5 535/12/5
f 541/12/5 537/12/5 536/12/5
f 542/12/5 537/12/5 541/12/5
f 543/12/5 540/12/5 539/12/5
f 543/12/5 539/12/5 538/12/5
f 544/12/5 540/12/5 543/12/5
f 550/12/5 546/12/5 545/12/5
f 551/12/5 548/12/5 547/12/5
f 553/12/5 550/12/5 549/12/5
f 554/12/5 546/12/5 550/12/5
f 554/12/5 550/12/5 553/12/5
f 555/12/5 552/12/5 551/12/5
f 555/12/5 551/12/5 547/12/5
f 556/12/5 552/12/5 555/12/5
f 557/12/5 546/12/5 554/12/5
f 558/12/5 546/12/5 557/12/5
f 559/12/5 555/12/5 547/12/5
f 560/12/5 555/12/5 559/12/5
f 565/13/5 562/13/5 561/13/5
f 566/13/5 562/13/5 565/13/5
f 567/13/5 564/13/5 563/13/5
f 568/13/5 564/13/5 567/13/5
f 571/13/5 570/13/5 569/13/5
f 572/13/5 570/13/5 571/13/5
f 578/12/5 574/12/5 573/12/5
f 579/12/5 574/12/5 578/12/5
f 580/12/5 576/12/5 575/12/5
f 581/12/5 576/12/5 580/12/5
f 583/5/5 578/5/5 577/5/5
f 584/5/5 578/5/5 583/5/5
f 587/5/5 582/5/5 581/5/5
f 588/5/5 582/5/5 587/5/5
f 589/12/5 585/12/5 584/12/5
f 590/12/5 585/12/5 589/12/5
f 591/12/5 587/12/5 586/12/5
f 592/12/5 587/12/5 591/12/5
f 598/13/5 594/13/5 593/13/5
f 599/13/5 594/13/5 598/13/5
f 600/13/5 594/13/5 599/13/5
f 601/13/5 596/13/5 595/13/5
f 602/13/5 596/13/5 601/13/5
f 603/13/5 596/13/5 602/13/5
f 605/13/5 598/13/5 597/13/5
f 606/13/5 598/13/5 605/13/5
f 607/13/5 604/13/5 603/13/5
f 608/13/5 604/13/5 607/13/5
f 613/13/5 610/13/5 609/13/5
f 614/13/5 610/13/5 613/13/5
f 617/13/5 612/13/5 611/13/5
f 618/13/5 612/13/5 617/13/5
f 619/13/5 616/13/5 615/13/5
f 620/13/5 616/13/5 619/13/5
f 621/14/6 622/14/6 623/14/6
f 623/14/6 622/14/6 624/14/6
f 625/14/6 626/14/6 627/14/6
f 627/14/6 626/14/6 628/14/6
f 629/2/6 630/2/6 631/2/6
f 631/2/6 630/2/6 632/2/6
f 633/12/6 634/12/6 635/12/6
f 635/12/6 634/12/6 636/12/6
f 637/12/6 638/12/6 639/12/6
f 639/12/6 638/12/6 640/12/6
f 641/13/6 642/13/6 643/13/6
f 643/13/6 642/13/6 644/13/6
f 645/5/6 646/5/6 649/5/6
f 649/5/6 646/5/6 650/5/6
f 647/5/6 648/5/6 651/5/6
f 651/5/6 648/5/6 652/5/6
f 653/13/6 654/13/6 658/13/6
f 658/13/6 654/13/6 659/13/6
f 655/13/6 656/13/6 660/13/6
f 660/13/6 656/13/6 661/13/6
f 657/13/6 658/13/6 664/13/6
f 661/13/6 662/13/6 665/13/6
f 663/12/6 664/12/6 667/12/6
f 664/13/6 658/13/6 668/13/6
f 667/12/6 664/12/6 668/12/6
f 665/12/6 666/12/6 669/12/6
f 661/13/6 665/13/6 669/13/6
f 669/12/6 666/12/6 670/12/6
f 668/13/6 658/13/6 671/13/6
f 671/13/6 658/13/6 672/13/6
f 661/13/6 669/13/6 675/13/6
f 675/13/6 669/13/6 676/13/6
f 673/13/6 674/13/6 677/13/6
f 677/13/6 674/13/6 678/13/6
f 679/12/6 680/12/6 683/12/6
f 683/12/6 680/12/6 684/12/6
f 681/12/6 682/12/6 685/12/6
f 685/12/6 682/12/6 686/12/6
f 687/2/6 688/2/6 689/2/6
f 689/2/6 688/2/6 690/2/6
